<svg width="160" height="16" viewBox="0 0 160 16" fill="none" xmlns="http://www.w3.org/2000/svg">
<path d="M10.64 9.1H6.67V13.29H4.92V9.1H0.97V7.48H4.92V3.3H6.67V7.48H10.64V9.1ZM12.7816 4.56C12.8816 3.88 13.0682 3.28333 13.3416 2.77C13.6216 2.25667 13.9716 1.83 14.3916 1.49C14.8116 1.14333 15.2916 0.883332 15.8316 0.71C16.3782 0.529999 16.9682 0.439999 17.6016 0.439999C18.2416 0.439999 18.8216 0.533332 19.3416 0.719999C19.8682 0.9 20.3182 1.15333 20.6916 1.48C21.0716 1.80667 21.3616 2.19667 21.5616 2.65C21.7682 3.10333 21.8716 3.6 21.8716 4.14C21.8716 4.6 21.8149 5.00667 21.7016 5.36C21.5949 5.70667 21.4382 6.01333 21.2316 6.28C21.0316 6.54667 20.7849 6.77 20.4916 6.95C20.1982 7.13 19.8682 7.28 19.5016 7.4C20.3949 7.66 21.0649 8.07667 21.5116 8.65C21.9582 9.21667 22.1816 9.93 22.1816 10.79C22.1816 11.4833 22.0516 12.1 21.7916 12.64C21.5316 13.18 21.1782 13.6367 20.7316 14.01C20.2916 14.3833 19.7749 14.67 19.1816 14.87C18.5949 15.0633 17.9716 15.16 17.3116 15.16C16.5716 15.16 15.9316 15.0733 15.3916 14.9C14.8516 14.72 14.3849 14.4667 13.9916 14.14C13.6049 13.8067 13.2816 13.4067 13.0216 12.94C12.7616 12.4733 12.5416 11.95 12.3616 11.37L13.2916 10.98C13.5382 10.8733 13.7716 10.8433 13.9916 10.89C14.2182 10.9367 14.3816 11.06 14.4816 11.26C14.5882 11.4733 14.7082 11.7033 14.8416 11.95C14.9749 12.19 15.1449 12.4133 15.3516 12.62C15.5649 12.82 15.8249 12.99 16.1316 13.13C16.4449 13.2633 16.8282 13.33 17.2816 13.33C17.7416 13.33 18.1416 13.2567 18.4816 13.11C18.8282 12.9567 19.1149 12.7633 19.3416 12.53C19.5749 12.29 19.7482 12.0233 19.8616 11.73C19.9749 11.4367 20.0316 11.1467 20.0316 10.86C20.0316 10.5 19.9882 10.17 19.9016 9.87C19.8149 9.56333 19.6449 9.30333 19.3916 9.09C19.1449 8.87667 18.7916 8.71 18.3316 8.59C17.8782 8.46333 17.2816 8.4 16.5416 8.4V6.85C17.1482 6.84333 17.6582 6.78333 18.0716 6.67C18.4916 6.55 18.8249 6.39 19.0716 6.19C19.3249 5.98333 19.5049 5.73667 19.6116 5.45C19.7249 5.16333 19.7816 4.85 19.7816 4.51C19.7816 4.14333 19.7249 3.82 19.6116 3.54C19.4982 3.26 19.3382 3.02667 19.1316 2.84C18.9316 2.64667 18.6916 2.50333 18.4116 2.41C18.1316 2.31667 17.8216 2.27 17.4816 2.27C17.1549 2.27 16.8516 2.31667 16.5716 2.41C16.2982 2.50333 16.0516 2.63333 15.8316 2.8C15.6182 2.96667 15.4382 3.16667 15.2916 3.4C15.1449 3.62667 15.0382 3.87667 14.9716 4.15C14.8782 4.42333 14.7516 4.60667 14.5916 4.7C14.4382 4.79333 14.2116 4.81333 13.9116 4.76L12.7816 4.56ZM29.0031 13.46C29.4365 13.46 29.8231 13.4 30.1631 13.28C30.5031 13.1533 30.7865 12.98 31.0131 12.76C31.2465 12.5333 31.4231 12.2667 31.5431 11.96C31.6631 11.6533 31.7231 11.32 31.7231 10.96C31.7231 10.52 31.6531 10.14 31.5131 9.82C31.3798 9.5 31.1898 9.23667 30.9431 9.03C30.7031 8.81667 30.4165 8.66 30.0831 8.56C29.7498 8.45333 29.3898 8.4 29.0031 8.4C28.6165 8.4 28.2565 8.45333 27.9231 8.56C27.5898 8.66 27.2998 8.81667 27.0531 9.03C26.8131 9.23667 26.6231 9.5 26.4831 9.82C26.3498 10.14 26.2831 10.52 26.2831 10.96C26.2831 11.32 26.3431 11.6533 26.4631 11.96C26.5831 12.2667 26.7565 12.5333 26.9831 12.76C27.2165 12.98 27.5031 13.1533 27.8431 13.28C28.1831 13.4 28.5698 13.46 29.0031 13.46ZM29.0031 2.09C28.6098 2.09 28.2631 2.15 27.9631 2.27C27.6698 2.39 27.4265 2.55 27.2331 2.75C27.0398 2.95 26.8931 3.18667 26.7931 3.46C26.6998 3.72667 26.6531 4.01 26.6531 4.31C26.6531 4.61 26.6931 4.90333 26.7731 5.19C26.8598 5.47667 26.9931 5.73333 27.1731 5.96C27.3598 6.18 27.6031 6.35667 27.9031 6.49C28.2031 6.62333 28.5698 6.69 29.0031 6.69C29.4365 6.69 29.8031 6.62333 30.1031 6.49C30.4031 6.35667 30.6431 6.18 30.8231 5.96C31.0098 5.73333 31.1431 5.47667 31.2231 5.19C31.3098 4.90333 31.3531 4.61 31.3531 4.31C31.3531 4.01 31.3031 3.72667 31.2031 3.46C31.1098 3.18667 30.9631 2.95 30.7631 2.75C30.5698 2.55 30.3265 2.39 30.0331 2.27C29.7398 2.15 29.3965 2.09 29.0031 2.09ZM31.2731 7.49C32.1598 7.76333 32.8231 8.19667 33.2631 8.79C33.7098 9.38333 33.9331 10.12 33.9331 11C33.9331 11.6333 33.8131 12.2067 33.5731 12.72C33.3331 13.2333 32.9965 13.67 32.5631 14.03C32.1298 14.39 31.6098 14.67 31.0031 14.87C30.4031 15.0633 29.7365 15.16 29.0031 15.16C28.2698 15.16 27.5998 15.0633 26.9931 14.87C26.3931 14.67 25.8765 14.39 25.4431 14.03C25.0098 13.67 24.6731 13.2333 24.4331 12.72C24.1931 12.2067 24.0731 11.6333 24.0731 11C24.0731 10.12 24.2931 9.38333 24.7331 8.79C25.1798 8.19667 25.8465 7.76333 26.7331 7.49C26.0131 7.20333 25.4698 6.78667 25.1031 6.24C24.7431 5.69333 24.5631 5.03667 24.5631 4.27C24.5631 3.73 24.6698 3.22667 24.8831 2.76C25.0965 2.29333 25.3965 1.89 25.7831 1.55C26.1765 1.20333 26.6465 0.933332 27.1931 0.739999C27.7398 0.539999 28.3431 0.439999 29.0031 0.439999C29.6631 0.439999 30.2631 0.539999 30.8031 0.739999C31.3498 0.933332 31.8165 1.20333 32.2031 1.55C32.5965 1.89 32.8998 2.29333 33.1131 2.76C33.3331 3.22667 33.4431 3.73 33.4431 4.27C33.4431 5.03667 33.2598 5.69333 32.8931 6.24C32.5331 6.78667 31.9931 7.20333 31.2731 7.49ZM45.8547 7.8C45.8547 9.06 45.718 10.15 45.4447 11.07C45.178 11.99 44.808 12.7533 44.3347 13.36C43.8614 13.9667 43.3047 14.4167 42.6647 14.71C42.0247 15.0033 41.3347 15.15 40.5947 15.15C39.8547 15.15 39.1647 15.0033 38.5247 14.71C37.8847 14.4167 37.328 13.9667 36.8547 13.36C36.388 12.7533 36.0214 11.99 35.7547 11.07C35.488 10.15 35.3547 9.06 35.3547 7.8C35.3547 6.54 35.488 5.45 35.7547 4.53C36.0214 3.60333 36.388 2.84 36.8547 2.24C37.328 1.63333 37.8847 1.18333 38.5247 0.89C39.1647 0.589999 39.8547 0.439999 40.5947 0.439999C41.3347 0.439999 42.0247 0.589999 42.6647 0.89C43.3047 1.18333 43.8614 1.63333 44.3347 2.24C44.808 2.84 45.178 3.60333 45.4447 4.53C45.718 5.45 45.8547 6.54 45.8547 7.8ZM43.6347 7.8C43.6347 6.73333 43.548 5.84667 43.3747 5.14C43.208 4.42667 42.9847 3.85667 42.7047 3.43C42.4247 3.00333 42.1014 2.7 41.7347 2.52C41.368 2.34 40.988 2.25 40.5947 2.25C40.1947 2.25 39.8114 2.34 39.4447 2.52C39.0847 2.7 38.7647 3.00333 38.4847 3.43C38.2047 3.85667 37.9814 4.42667 37.8147 5.14C37.648 5.84667 37.5647 6.73333 37.5647 7.8C37.5647 8.86667 37.648 9.75667 37.8147 10.47C37.9814 11.1767 38.2047 11.7433 38.4847 12.17C38.7647 12.5967 39.0847 12.9 39.4447 13.08C39.8114 13.26 40.1947 13.35 40.5947 13.35C40.988 13.35 41.368 13.26 41.7347 13.08C42.1014 12.9 42.4247 12.5967 42.7047 12.17C42.9847 11.7433 43.208 11.1767 43.3747 10.47C43.548 9.75667 43.6347 8.86667 43.6347 7.8ZM57.1667 13.38C57.6001 13.38 57.9967 13.31 58.3567 13.17C58.7167 13.0233 59.0234 12.8233 59.2767 12.57C59.5367 12.3167 59.7367 12.0167 59.8767 11.67C60.0167 11.3233 60.0867 10.9467 60.0867 10.54C60.0867 10.1 60.0167 9.70667 59.8767 9.36C59.7434 9.00667 59.5501 8.71 59.2967 8.47C59.0501 8.23 58.7501 8.04667 58.3967 7.92C58.0501 7.78667 57.6667 7.72 57.2467 7.72C56.8134 7.72 56.4201 7.79333 56.0667 7.94C55.7201 8.08667 55.4234 8.28667 55.1767 8.54C54.9301 8.79333 54.7401 9.09 54.6067 9.43C54.4734 9.77 54.4067 10.13 54.4067 10.51C54.4067 10.9367 54.4667 11.3267 54.5867 11.68C54.7067 12.0333 54.8834 12.3367 55.1167 12.59C55.3501 12.8367 55.6367 13.03 55.9767 13.17C56.3234 13.31 56.7201 13.38 57.1667 13.38ZM56.3767 5.9C56.2701 6.03333 56.1667 6.16 56.0667 6.28C55.9734 6.4 55.8801 6.52 55.7867 6.64C56.0934 6.46667 56.4301 6.33 56.7967 6.23C57.1634 6.13 57.5567 6.08 57.9767 6.08C58.5367 6.08 59.0734 6.17333 59.5867 6.36C60.1001 6.54 60.5501 6.81333 60.9367 7.18C61.3301 7.54 61.6434 7.99 61.8767 8.53C62.1101 9.06333 62.2267 9.68 62.2267 10.38C62.2267 11.0467 62.1034 11.67 61.8567 12.25C61.6167 12.83 61.2767 13.3367 60.8367 13.77C60.3967 14.1967 59.8667 14.5367 59.2467 14.79C58.6334 15.0367 57.9534 15.16 57.2067 15.16C56.4601 15.16 55.7867 15.04 55.1867 14.8C54.5867 14.56 54.0734 14.2233 53.6467 13.79C53.2267 13.35 52.9034 12.8233 52.6767 12.21C52.4501 11.5967 52.3367 10.9133 52.3367 10.16C52.3367 9.50667 52.4767 8.82333 52.7567 8.11C53.0367 7.39667 53.4701 6.64667 54.0567 5.86L57.5967 1.11C57.7034 0.969999 57.8567 0.849999 58.0567 0.749999C58.2634 0.649999 58.4934 0.599999 58.7467 0.599999H60.6467L56.3767 5.9ZM73.8583 0.599999V1.55C73.8583 1.83 73.8283 2.05667 73.7683 2.23C73.7083 2.40333 73.6483 2.55 73.5883 2.67L67.8983 14.25C67.7983 14.4633 67.6549 14.6433 67.4683 14.79C67.2883 14.93 67.0483 15 66.7483 15H65.1983L70.9983 3.61C71.1049 3.40333 71.2116 3.21667 71.3183 3.05C71.4249 2.88333 71.5449 2.72333 71.6783 2.57H64.4883C64.3549 2.57 64.2383 2.52 64.1383 2.42C64.0383 2.31333 63.9883 2.19333 63.9883 2.06V0.599999H73.8583ZM80.3698 13.38C80.8032 13.38 81.1998 13.31 81.5598 13.17C81.9198 13.0233 82.2265 12.8233 82.4798 12.57C82.7398 12.3167 82.9398 12.0167 83.0798 11.67C83.2198 11.3233 83.2898 10.9467 83.2898 10.54C83.2898 10.1 83.2198 9.70667 83.0798 9.36C82.9465 9.00667 82.7532 8.71 82.4998 8.47C82.2532 8.23 81.9532 8.04667 81.5998 7.92C81.2532 7.78667 80.8698 7.72 80.4498 7.72C80.0165 7.72 79.6232 7.79333 79.2698 7.94C78.9232 8.08667 78.6265 8.28667 78.3798 8.54C78.1332 8.79333 77.9432 9.09 77.8098 9.43C77.6765 9.77 77.6098 10.13 77.6098 10.51C77.6098 10.9367 77.6698 11.3267 77.7898 11.68C77.9098 12.0333 78.0865 12.3367 78.3198 12.59C78.5532 12.8367 78.8398 13.03 79.1798 13.17C79.5265 13.31 79.9232 13.38 80.3698 13.38ZM79.5798 5.9C79.4732 6.03333 79.3698 6.16 79.2698 6.28C79.1765 6.4 79.0832 6.52 78.9898 6.64C79.2965 6.46667 79.6332 6.33 79.9998 6.23C80.3665 6.13 80.7598 6.08 81.1798 6.08C81.7398 6.08 82.2765 6.17333 82.7898 6.36C83.3032 6.54 83.7532 6.81333 84.1398 7.18C84.5332 7.54 84.8465 7.99 85.0798 8.53C85.3132 9.06333 85.4298 9.68 85.4298 10.38C85.4298 11.0467 85.3065 11.67 85.0598 12.25C84.8198 12.83 84.4798 13.3367 84.0398 13.77C83.5998 14.1967 83.0698 14.5367 82.4498 14.79C81.8365 15.0367 81.1565 15.16 80.4098 15.16C79.6632 15.16 78.9898 15.04 78.3898 14.8C77.7898 14.56 77.2765 14.2233 76.8498 13.79C76.4298 13.35 76.1065 12.8233 75.8798 12.21C75.6532 11.5967 75.5398 10.9133 75.5398 10.16C75.5398 9.50667 75.6798 8.82333 75.9598 8.11C76.2398 7.39667 76.6732 6.64667 77.2598 5.86L80.7998 1.11C80.9065 0.969999 81.0598 0.849999 81.2598 0.749999C81.4665 0.649999 81.6965 0.599999 81.9498 0.599999H83.8498L79.5798 5.9ZM91.9714 13.38C92.4047 13.38 92.8014 13.31 93.1614 13.17C93.5214 13.0233 93.8281 12.8233 94.0814 12.57C94.3414 12.3167 94.5414 12.0167 94.6814 11.67C94.8214 11.3233 94.8914 10.9467 94.8914 10.54C94.8914 10.1 94.8214 9.70667 94.6814 9.36C94.5481 9.00667 94.3547 8.71 94.1014 8.47C93.8547 8.23 93.5547 8.04667 93.2014 7.92C92.8547 7.78667 92.4714 7.72 92.0514 7.72C91.6181 7.72 91.2247 7.79333 90.8714 7.94C90.5247 8.08667 90.2281 8.28667 89.9814 8.54C89.7347 8.79333 89.5447 9.09 89.4114 9.43C89.2781 9.77 89.2114 10.13 89.2114 10.51C89.2114 10.9367 89.2714 11.3267 89.3914 11.68C89.5114 12.0333 89.6881 12.3367 89.9214 12.59C90.1547 12.8367 90.4414 13.03 90.7814 13.17C91.1281 13.31 91.5247 13.38 91.9714 13.38ZM91.1814 5.9C91.0747 6.03333 90.9714 6.16 90.8714 6.28C90.7781 6.4 90.6847 6.52 90.5914 6.64C90.8981 6.46667 91.2347 6.33 91.6014 6.23C91.9681 6.13 92.3614 6.08 92.7814 6.08C93.3414 6.08 93.8781 6.17333 94.3914 6.36C94.9047 6.54 95.3547 6.81333 95.7414 7.18C96.1347 7.54 96.4481 7.99 96.6814 8.53C96.9147 9.06333 97.0314 9.68 97.0314 10.38C97.0314 11.0467 96.9081 11.67 96.6614 12.25C96.4214 12.83 96.0814 13.3367 95.6414 13.77C95.2014 14.1967 94.6714 14.5367 94.0514 14.79C93.4381 15.0367 92.7581 15.16 92.0114 15.16C91.2647 15.16 90.5914 15.04 89.9914 14.8C89.3914 14.56 88.8781 14.2233 88.4514 13.79C88.0314 13.35 87.7081 12.8233 87.4814 12.21C87.2547 11.5967 87.1414 10.9133 87.1414 10.16C87.1414 9.50667 87.2814 8.82333 87.5614 8.11C87.8414 7.39667 88.2747 6.64667 88.8614 5.86L92.4014 1.11C92.5081 0.969999 92.6614 0.849999 92.8614 0.749999C93.0681 0.649999 93.2981 0.599999 93.5514 0.599999H95.4514L91.1814 5.9ZM108.063 13.37V15H100.213V13.37H103.213V4.35C103.213 4.03 103.223 3.70333 103.243 3.37L100.933 5.32C100.833 5.4 100.73 5.45333 100.623 5.48C100.523 5.5 100.426 5.5 100.333 5.48C100.246 5.46 100.166 5.43 100.093 5.39C100.026 5.34333 99.973 5.29333 99.933 5.24L99.263 4.3L103.603 0.569999H105.353V13.37H108.063ZM118.225 5.92C118.572 5.84667 118.902 5.79333 119.215 5.76C119.535 5.72667 119.842 5.71 120.135 5.71C120.888 5.71 121.552 5.82333 122.125 6.05C122.705 6.27 123.188 6.57667 123.575 6.97C123.968 7.36333 124.262 7.82667 124.455 8.36C124.655 8.88667 124.755 9.46 124.755 10.08C124.755 10.8467 124.622 11.5433 124.355 12.17C124.088 12.7967 123.718 13.3333 123.245 13.78C122.772 14.22 122.212 14.56 121.565 14.8C120.925 15.04 120.232 15.16 119.485 15.16C119.045 15.16 118.625 15.1167 118.225 15.03C117.832 14.9433 117.462 14.8267 117.115 14.68C116.768 14.5267 116.448 14.3533 116.155 14.16C115.862 13.96 115.598 13.7533 115.365 13.54L116.025 12.62C116.165 12.42 116.352 12.32 116.585 12.32C116.732 12.32 116.892 12.3733 117.065 12.48C117.238 12.5867 117.438 12.7033 117.665 12.83C117.898 12.95 118.172 13.0633 118.485 13.17C118.798 13.2767 119.172 13.33 119.605 13.33C120.078 13.33 120.502 13.2533 120.875 13.1C121.248 12.9467 121.562 12.7333 121.815 12.46C122.075 12.18 122.272 11.8467 122.405 11.46C122.538 11.0733 122.605 10.65 122.605 10.19C122.605 9.77 122.542 9.39333 122.415 9.06C122.295 8.72667 122.112 8.44333 121.865 8.21C121.625 7.97667 121.322 7.8 120.955 7.68C120.588 7.55333 120.165 7.49 119.685 7.49C119.332 7.49 118.968 7.52 118.595 7.58C118.228 7.64 117.855 7.73333 117.475 7.86L116.135 7.48L117.315 0.599999H124.285V1.53C124.285 1.83667 124.188 2.08667 123.995 2.28C123.802 2.47333 123.478 2.57 123.025 2.57H118.805L118.225 5.92ZM133.187 9.68V4.42C133.187 4 133.217 3.54 133.277 3.04L128.437 9.68H133.187ZM137.047 9.68V10.92C137.047 11.04 137.007 11.1433 136.927 11.23C136.853 11.3167 136.74 11.36 136.587 11.36H135.057V15H133.187V11.36H126.957C126.803 11.36 126.67 11.3167 126.557 11.23C126.45 11.1367 126.38 11.0233 126.347 10.89L126.127 9.79L133.037 0.589999H135.057V9.68H137.047ZM147.848 13.37V15H139.998V13.37H142.998V4.35C142.998 4.03 143.008 3.70333 143.028 3.37L140.718 5.32C140.618 5.4 140.515 5.45333 140.408 5.48C140.308 5.5 140.211 5.5 140.118 5.48C140.031 5.46 139.951 5.43 139.878 5.39C139.811 5.34333 139.758 5.29333 139.718 5.24L139.048 4.3L143.388 0.569999H145.138V13.37H147.848ZM153.03 5.92C153.376 5.84667 153.706 5.79333 154.02 5.76C154.34 5.72667 154.646 5.71 154.94 5.71C155.693 5.71 156.356 5.82333 156.93 6.05C157.51 6.27 157.993 6.57667 158.38 6.97C158.773 7.36333 159.066 7.82667 159.26 8.36C159.46 8.88667 159.56 9.46 159.56 10.08C159.56 10.8467 159.426 11.5433 159.16 12.17C158.893 12.7967 158.523 13.3333 158.05 13.78C157.576 14.22 157.016 14.56 156.37 14.8C155.73 15.04 155.036 15.16 154.29 15.16C153.85 15.16 153.43 15.1167 153.03 15.03C152.636 14.9433 152.266 14.8267 151.92 14.68C151.573 14.5267 151.253 14.3533 150.96 14.16C150.666 13.96 150.403 13.7533 150.17 13.54L150.83 12.62C150.97 12.42 151.156 12.32 151.39 12.32C151.536 12.32 151.696 12.3733 151.87 12.48C152.043 12.5867 152.243 12.7033 152.47 12.83C152.703 12.95 152.976 13.0633 153.29 13.17C153.603 13.2767 153.976 13.33 154.41 13.33C154.883 13.33 155.306 13.2533 155.68 13.1C156.053 12.9467 156.366 12.7333 156.62 12.46C156.88 12.18 157.076 11.8467 157.21 11.46C157.343 11.0733 157.41 10.65 157.41 10.19C157.41 9.77 157.346 9.39333 157.22 9.06C157.1 8.72667 156.916 8.44333 156.67 8.21C156.43 7.97667 156.126 7.8 155.76 7.68C155.393 7.55333 154.97 7.49 154.49 7.49C154.136 7.49 153.773 7.52 153.4 7.58C153.033 7.64 152.66 7.73333 152.28 7.86L150.94 7.48L152.12 0.599999H159.09V1.53C159.09 1.83667 158.993 2.08667 158.8 2.28C158.606 2.47333 158.283 2.57 157.83 2.57H153.61L153.03 5.92Z" fill="#3D4A39"/>
</svg>
