<svg width="241.000000" height="129.000000" viewBox="0 0 241 129" fill="none" xmlns="http://www.w3.org/2000/svg" xmlns:xlink="http://www.w3.org/1999/xlink">
	<desc>
			Created with Pixso.
	</desc>
	<defs>
		<filter id="filter_221_57_dd" x="74.000000" y="0.000000" width="93.000000" height="93.000000" filterUnits="userSpaceOnUse" color-interpolation-filters="sRGB">
			<feFlood flood-opacity="0" result="BackgroundImageFix"/>
			<feColorMatrix in="SourceAlpha" type="matrix" values="0 0 0 0 0 0 0 0 0 0 0 0 0 0 0 0 0 0 127 0" result="hardAlpha"/>
			<feOffset dx="0" dy="10"/>
			<feGaussianBlur stdDeviation="5"/>
			<feComposite in2="hardAlpha" operator="out" k2="-1" k3="1"/>
			<feColorMatrix type="matrix" values="0 0 0 0 0 0 0 0 0 0 0 0 0 0 0 0 0 0 0.25 0"/>
			<feBlend mode="normal" in2="BackgroundImageFix" result="effect_dropShadow_1"/>
			<feBlend mode="normal" in="SourceGraphic" in2="effect_dropShadow_1" result="shape"/>
		</filter>
		<clipPath id="clip221_57">
			<rect id="burner-oven 1" width="63.000000" height="63.000000" transform="translate(89.000000 5.000000)" fill="white" fill-opacity="0"/>
		</clipPath>
	</defs>
	<g opacity="0.500000">
		<path id="Побутовою технікою" d="M2.04 121.972L2.04 104.932L15.192 104.932L15.192 121.972L13.032 121.972L13.032 106.852L4.2 106.852L4.2 121.972L2.04 121.972ZM24.4026 122.212C23.1546 122.212 22.0506 121.916 21.0906 121.324C20.1466 120.716 19.4106 119.924 18.8826 118.948C18.3546 117.956 18.0906 116.884 18.0906 115.732C18.0906 114.564 18.3546 113.492 18.8826 112.516C19.4266 111.524 20.1706 110.732 21.1146 110.14C22.0746 109.532 23.1706 109.228 24.4026 109.228C25.6506 109.228 26.7466 109.532 27.6906 110.14C28.6506 110.732 29.3946 111.524 29.9226 112.516C30.4666 113.492 30.7386 114.564 30.7386 115.732C30.7386 116.884 30.4666 117.956 29.9226 118.948C29.3946 119.924 28.6586 120.716 27.7146 121.324C26.7706 121.916 25.6666 122.212 24.4026 122.212ZM20.2506 115.756C20.2506 116.62 20.4346 117.404 20.8026 118.108C21.1866 118.812 21.6906 119.372 22.3146 119.788C22.9386 120.188 23.6346 120.388 24.4026 120.388C25.1706 120.388 25.8666 120.18 26.4906 119.764C27.1306 119.348 27.6346 118.788 28.0026 118.084C28.3866 117.364 28.5786 116.572 28.5786 115.708C28.5786 114.844 28.3866 114.06 28.0026 113.356C27.6346 112.652 27.1306 112.092 26.4906 111.676C25.8666 111.26 25.1706 111.052 24.4026 111.052C23.6346 111.052 22.9386 111.268 22.3146 111.7C21.6906 112.116 21.1866 112.676 20.8026 113.38C20.4346 114.084 20.2506 114.876 20.2506 115.756ZM39.2018 122.212C37.1377 122.212 35.5778 121.588 34.5218 120.34C33.4658 119.092 32.9378 117.332 32.9378 115.06C32.9378 113.508 33.0658 112.204 33.3218 111.148C33.5778 110.076 33.9618 109.196 34.4738 108.508C34.9857 107.804 35.6178 107.236 36.3698 106.804C37.1217 106.356 37.9857 105.988 38.9618 105.7L44.2658 104.092L44.3857 105.916L39.2257 107.476C38.3457 107.764 37.6097 108.132 37.0177 108.58C36.4258 109.028 35.9618 109.604 35.6258 110.308C35.2897 111.012 35.0658 111.916 34.9538 113.02C35.3698 112.172 35.9938 111.516 36.8258 111.052C37.6577 110.572 38.6258 110.332 39.7298 110.332C40.9137 110.332 41.9297 110.58 42.7777 111.076C43.6418 111.556 44.2978 112.236 44.7458 113.116C45.2098 113.98 45.4417 114.98 45.4417 116.116C45.4417 117.332 45.2018 118.396 44.7218 119.308C44.2418 120.22 43.5378 120.932 42.6097 121.444C41.6818 121.956 40.5457 122.212 39.2018 122.212ZM39.2018 120.388C40.4977 120.388 41.4977 120.012 42.2018 119.26C42.9218 118.492 43.2817 117.476 43.2817 116.212C43.2817 114.98 42.9297 113.98 42.2257 113.212C41.5218 112.444 40.5137 112.06 39.2018 112.06C38.0338 112.06 37.0578 112.42 36.2738 113.14C35.5057 113.86 35.1217 114.884 35.1217 116.212C35.1217 117.428 35.4738 118.428 36.1777 119.212C36.8818 119.996 37.8898 120.388 39.2018 120.388ZM49.1312 127.228C48.6032 127.228 48.0432 127.068 47.4512 126.748L48.1712 125.308C48.4432 125.468 48.7152 125.548 48.9872 125.548C49.7712 125.548 50.4592 124.82 51.0512 123.364L51.6512 121.852L46.1552 109.444L48.3872 109.444L52.6112 119.836L56.4272 109.444L58.5152 109.444L52.6592 124.012C52.2272 125.084 51.7072 125.884 51.0992 126.412C50.4912 126.956 49.8352 127.228 49.1312 127.228ZM63.6973 121.972L63.6973 111.316L59.3773 111.316L59.3773 109.444L70.1293 109.444L70.1293 111.316L65.8093 111.316L65.8093 121.972L63.6973 121.972ZM77.7229 122.212C76.4749 122.212 75.3709 121.916 74.4109 121.324C73.4669 120.716 72.7309 119.924 72.2029 118.948C71.6749 117.956 71.4109 116.884 71.4109 115.732C71.4109 114.564 71.6749 113.492 72.2029 112.516C72.7469 111.524 73.4909 110.732 74.4349 110.14C75.3949 109.532 76.4909 109.228 77.7229 109.228C78.9709 109.228 80.0669 109.532 81.0109 110.14C81.9709 110.732 82.7149 111.524 83.2429 112.516C83.7869 113.492 84.0589 114.564 84.0589 115.732C84.0589 116.884 83.7869 117.956 83.2429 118.948C82.7149 119.924 81.9789 120.716 81.0349 121.324C80.0909 121.916 78.9869 122.212 77.7229 122.212ZM73.5709 115.756C73.5709 116.62 73.7549 117.404 74.1229 118.108C74.5069 118.812 75.0109 119.372 75.6349 119.788C76.2589 120.188 76.9549 120.388 77.7229 120.388C78.4909 120.388 79.1869 120.18 79.8109 119.764C80.4509 119.348 80.9549 118.788 81.3229 118.084C81.7069 117.364 81.8989 116.572 81.8989 115.708C81.8989 114.844 81.7069 114.06 81.3229 113.356C80.9549 112.652 80.4509 112.092 79.8109 111.676C79.1869 111.26 78.4909 111.052 77.7229 111.052C76.9549 111.052 76.2589 111.268 75.6349 111.7C75.0109 112.116 74.5069 112.676 74.1229 113.38C73.7549 114.084 73.5709 114.876 73.5709 115.756ZM86.5941 121.972L86.5941 109.444L93.0741 109.444C93.8261 109.444 94.4501 109.596 94.9461 109.9C95.4421 110.188 95.8101 110.564 96.0501 111.028C96.3061 111.492 96.4341 111.988 96.4341 112.516C96.4341 113.188 96.2741 113.796 95.9541 114.34C95.6341 114.868 95.1701 115.268 94.5621 115.54C95.2821 115.748 95.8661 116.124 96.3141 116.668C96.7621 117.196 96.9861 117.852 96.9861 118.636C96.9861 119.692 96.6101 120.516 95.8581 121.108C95.1221 121.684 94.1541 121.972 92.9541 121.972L86.5941 121.972ZM88.6101 114.964L92.5221 114.964C93.0821 114.964 93.5381 114.756 93.8901 114.34C94.2581 113.908 94.4421 113.42 94.4421 112.876C94.4421 112.348 94.2661 111.892 93.9141 111.508C93.5781 111.124 93.1381 110.932 92.5941 110.932L88.6101 110.932L88.6101 114.964ZM88.6101 120.484L92.9061 120.484C93.4821 120.484 93.9621 120.276 94.3461 119.86C94.7461 119.444 94.9461 118.964 94.9461 118.42C94.9461 117.86 94.7541 117.38 94.3701 116.98C94.0021 116.564 93.5381 116.356 92.9781 116.356L88.6101 116.356L88.6101 120.484ZM105.145 122.212C103.897 122.212 102.793 121.916 101.833 121.324C100.889 120.716 100.153 119.924 99.6247 118.948C99.0967 117.956 98.8327 116.884 98.8327 115.732C98.8327 114.564 99.0967 113.492 99.6247 112.516C100.169 111.524 100.913 110.732 101.857 110.14C102.817 109.532 103.913 109.228 105.145 109.228C106.393 109.228 107.489 109.532 108.433 110.14C109.393 110.732 110.137 111.524 110.665 112.516C111.209 113.492 111.481 114.564 111.481 115.732C111.481 116.884 111.209 117.956 110.665 118.948C110.137 119.924 109.401 120.716 108.457 121.324C107.513 121.916 106.409 122.212 105.145 122.212ZM100.993 115.756C100.993 116.62 101.177 117.404 101.545 118.108C101.929 118.812 102.433 119.372 103.057 119.788C103.681 120.188 104.377 120.388 105.145 120.388C105.913 120.388 106.609 120.18 107.233 119.764C107.873 119.348 108.377 118.788 108.745 118.084C109.129 117.364 109.321 116.572 109.321 115.708C109.321 114.844 109.129 114.06 108.745 113.356C108.377 112.652 107.873 112.092 107.233 111.676C106.609 111.26 105.913 111.052 105.145 111.052C104.377 111.052 103.681 111.268 103.057 111.7C102.433 112.116 101.929 112.676 101.545 113.38C101.177 114.084 100.993 114.876 100.993 115.756ZM124.384 122.212C123.28 122.212 122.304 121.972 121.456 121.492C120.608 121.012 119.928 120.356 119.416 119.524C118.904 118.676 118.592 117.716 118.48 116.644L116.152 116.644L116.152 121.972L114.04 121.972L114.04 109.444L116.152 109.444L116.152 114.796L118.48 114.796C118.608 113.692 118.928 112.724 119.44 111.892C119.968 111.044 120.656 110.388 121.504 109.924C122.352 109.46 123.312 109.228 124.384 109.228C125.648 109.228 126.736 109.524 127.648 110.116C128.56 110.692 129.264 111.468 129.76 112.444C130.256 113.42 130.504 114.516 130.504 115.732C130.504 116.98 130.248 118.092 129.736 119.068C129.24 120.044 128.528 120.812 127.6 121.372C126.688 121.932 125.616 122.212 124.384 122.212ZM124.384 120.388C125.168 120.388 125.856 120.188 126.448 119.788C127.04 119.388 127.504 118.844 127.84 118.156C128.176 117.452 128.344 116.644 128.344 115.732C128.344 114.772 128.168 113.948 127.816 113.26C127.48 112.556 127.008 112.012 126.4 111.628C125.808 111.244 125.136 111.052 124.384 111.052C123.632 111.052 122.96 111.252 122.368 111.652C121.792 112.036 121.344 112.58 121.024 113.284C120.704 113.988 120.544 114.804 120.544 115.732C120.544 117.156 120.904 118.292 121.624 119.14C122.344 119.972 123.264 120.388 124.384 120.388ZM142.189 121.972L142.189 111.316L137.87 111.316L137.87 109.444L148.622 109.444L148.622 111.316L144.301 111.316L144.301 121.972L142.189 121.972ZM156.287 122.212C155.039 122.212 153.935 121.916 152.975 121.324C152.015 120.732 151.263 119.94 150.719 118.948C150.175 117.956 149.903 116.876 149.903 115.708C149.903 114.524 150.175 113.444 150.719 112.468C151.263 111.492 152.015 110.708 152.975 110.116C153.951 109.524 155.063 109.228 156.311 109.228C157.575 109.228 158.671 109.532 159.599 110.14C160.543 110.732 161.271 111.516 161.783 112.492C162.311 113.452 162.575 114.492 162.575 115.612C162.575 115.964 162.559 116.236 162.527 116.428L152.135 116.428C152.199 117.244 152.423 117.972 152.807 118.612C153.207 119.236 153.719 119.732 154.343 120.1C154.967 120.452 155.639 120.628 156.359 120.628C157.127 120.628 157.847 120.436 158.519 120.052C159.207 119.668 159.679 119.164 159.935 118.54L161.759 119.044C161.359 119.972 160.663 120.732 159.671 121.324C158.679 121.916 157.551 122.212 156.287 122.212ZM152.063 114.964L160.607 114.964C160.543 114.148 160.311 113.428 159.911 112.804C159.511 112.18 158.999 111.692 158.375 111.34C157.751 110.988 157.063 110.812 156.311 110.812C155.575 110.812 154.895 110.988 154.271 111.34C153.647 111.692 153.135 112.18 152.735 112.804C152.351 113.428 152.127 114.148 152.063 114.964ZM165.859 109.444L169.171 114.052L169.363 114.436L169.579 114.052L172.867 109.444L175.219 109.444L170.587 115.732L175.243 121.972L172.891 121.972L169.579 117.388L169.363 117.028L169.171 117.388L165.859 121.972L163.507 121.972L168.163 115.732L163.531 109.444L165.859 109.444ZM177.203 121.972L177.203 109.444L179.315 109.444L179.315 114.628L185.843 114.628L185.843 109.444L187.955 109.444L187.955 121.972L185.843 121.972L185.843 116.5L179.315 116.5L179.315 121.972L177.203 121.972ZM191.36 107.092L191.36 104.452L193.472 104.452L193.472 107.092L191.36 107.092ZM191.36 121.972L191.36 109.444L193.472 109.444L193.472 121.972L191.36 121.972ZM196.867 121.972L196.867 109.444L198.98 109.444L198.98 114.604L200.372 114.604L204.307 109.444L206.708 109.444L202.027 115.516L207.26 121.972L204.811 121.972L200.372 116.548L198.98 116.548L198.98 121.972L196.867 121.972ZM214.153 122.212C212.905 122.212 211.801 121.916 210.841 121.324C209.897 120.716 209.161 119.924 208.633 118.948C208.105 117.956 207.841 116.884 207.841 115.732C207.841 114.564 208.105 113.492 208.633 112.516C209.177 111.524 209.921 110.732 210.865 110.14C211.825 109.532 212.921 109.228 214.153 109.228C215.401 109.228 216.497 109.532 217.441 110.14C218.401 110.732 219.145 111.524 219.673 112.516C220.217 113.492 220.489 114.564 220.489 115.732C220.489 116.884 220.217 117.956 219.673 118.948C219.145 119.924 218.409 120.716 217.465 121.324C216.521 121.916 215.417 122.212 214.153 122.212ZM210.001 115.756C210.001 116.62 210.185 117.404 210.553 118.108C210.937 118.812 211.441 119.372 212.065 119.788C212.689 120.188 213.385 120.388 214.153 120.388C214.921 120.388 215.617 120.18 216.241 119.764C216.881 119.348 217.385 118.788 217.753 118.084C218.137 117.364 218.329 116.572 218.329 115.708C218.329 114.844 218.137 114.06 217.753 113.356C217.385 112.652 216.881 112.092 216.241 111.676C215.617 111.26 214.921 111.052 214.153 111.052C213.385 111.052 212.689 111.268 212.065 111.7C211.441 112.116 210.937 112.676 210.553 113.38C210.185 114.084 210.001 114.876 210.001 115.756ZM233.392 122.212C232.288 122.212 231.312 121.972 230.464 121.492C229.616 121.012 228.936 120.356 228.424 119.524C227.912 118.676 227.6 117.716 227.488 116.644L225.16 116.644L225.16 121.972L223.048 121.972L223.048 109.444L225.16 109.444L225.16 114.796L227.488 114.796C227.616 113.692 227.936 112.724 228.448 111.892C228.976 111.044 229.664 110.388 230.512 109.924C231.36 109.46 232.32 109.228 233.392 109.228C234.656 109.228 235.744 109.524 236.656 110.116C237.568 110.692 238.272 111.468 238.768 112.444C239.264 113.42 239.512 114.516 239.512 115.732C239.512 116.98 239.256 118.092 238.744 119.068C238.248 120.044 237.536 120.812 236.608 121.372C235.696 121.932 234.624 122.212 233.392 122.212ZM233.392 120.388C234.176 120.388 234.864 120.188 235.456 119.788C236.048 119.388 236.512 118.844 236.848 118.156C237.184 117.452 237.352 116.644 237.352 115.732C237.352 114.772 237.176 113.948 236.824 113.26C236.488 112.556 236.016 112.012 235.408 111.628C234.816 111.244 234.144 111.052 233.392 111.052C232.64 111.052 231.968 111.252 231.376 111.652C230.8 112.036 230.352 112.58 230.032 113.284C229.712 113.988 229.552 114.804 229.552 115.732C229.552 117.156 229.912 118.292 230.632 119.14C231.352 119.972 232.272 120.388 233.392 120.388Z" fill="#FFFFFF" fill-opacity="1.000000" fill-rule="evenodd"/>
	</g>
	<g filter="url(#filter_221_57_dd)">
		<rect id="burner-oven 1" width="63.000000" height="63.000000" transform="translate(89.000000 5.000000)" fill="#FFFFFF" fill-opacity="0"/>
		<g clip-path="url(#clip221_57)">
			<path id="Vector" d="M146.675 5L94.3265 5C92.3864 5 90.8074 6.578 90.8074 8.51819L90.8074 60.8672C90.8074 62.8074 92.3864 64.3834 94.3256 64.3834L96.0295 64.3834L96.0295 67.0461C96.0295 67.5728 96.4567 68 96.9844 68L105.295 68C105.823 68 106.25 67.5728 106.25 67.0461L106.25 64.3834L134.748 64.3834L134.748 67.0461C134.748 67.5728 135.175 68 135.703 68L144.014 68C144.541 68 144.968 67.5728 144.968 67.0461L144.968 64.3834L146.673 64.3834C148.613 64.3834 150.191 62.8064 150.191 60.8672L150.191 8.51819C150.193 6.578 148.615 5 146.675 5ZM94.3265 6.90771L146.675 6.90771C147.561 6.90771 148.284 7.63025 148.284 8.51819L148.284 18.0558L92.717 18.0558L92.717 8.51819C92.717 7.63123 93.4386 6.90771 94.3265 6.90771ZM104.342 66.0913L97.9402 66.0913L97.9402 64.3844L104.343 64.3844L104.343 66.0913L104.342 66.0913ZM143.06 66.0913L136.658 66.0913L136.658 64.3844L143.06 64.3844L143.06 66.0913ZM146.675 62.4747L94.3265 62.4747C93.4396 62.4747 92.717 61.7542 92.717 60.8672L92.717 19.9655L148.284 19.9655L148.284 60.8672C148.284 61.7532 147.561 62.4747 146.675 62.4747Z" fill="#FFFFFF" fill-opacity="1.000000" fill-rule="nonzero"/>
			<path id="Vector" d="M135.704 16.3223C137.82 16.3223 139.543 14.5996 139.543 12.4833C139.543 10.3668 137.82 8.64417 135.704 8.64417C133.586 8.64417 131.864 10.3668 131.864 12.4833C131.864 14.5996 133.586 16.3223 135.704 16.3223ZM135.704 10.5529C136.767 10.5529 137.634 11.4191 137.634 12.4833C137.634 13.5474 136.767 14.4136 135.704 14.4136C134.639 14.4136 133.773 13.5474 133.773 12.4833C133.773 11.4191 134.64 10.5529 135.704 10.5529ZM120.5 16.3223C122.616 16.3223 124.338 14.5996 124.338 12.4833C124.338 10.3668 122.616 8.64417 120.5 8.64417C118.384 8.64417 116.661 10.3668 116.661 12.4833C116.661 14.5996 118.384 16.3223 120.5 16.3223ZM120.5 10.5529C121.563 10.5529 122.429 11.4191 122.429 12.4833C122.429 13.5474 121.564 14.4136 120.5 14.4136C119.436 14.4136 118.57 13.5474 118.57 12.4833C118.57 11.4191 119.436 10.5529 120.5 10.5529ZM105.296 16.3223C107.414 16.3223 109.134 14.5996 109.134 12.4833C109.134 10.3668 107.414 8.64417 105.296 8.64417C103.18 8.64417 101.457 10.3668 101.457 12.4833C101.457 14.5996 103.18 16.3223 105.296 16.3223ZM105.296 10.5529C106.36 10.5529 107.227 11.4191 107.227 12.4833C107.227 13.5474 106.36 14.4136 105.296 14.4136C104.232 14.4136 103.366 13.5474 103.366 12.4833C103.366 11.4191 104.232 10.5529 105.296 10.5529ZM141.353 32.026L99.6499 32.026C99.1223 32.026 98.6951 32.4542 98.6951 32.9808L98.6951 56.218C98.6951 56.7456 99.1223 57.1729 99.6499 57.1729L141.353 57.1729C141.882 57.1729 142.309 56.7456 142.309 56.218L142.309 32.9808C142.308 32.4542 141.882 32.026 141.353 32.026ZM140.399 55.2642L100.605 55.2642L100.605 33.9357L140.399 33.9357L140.399 55.2642Z" fill="#FFFFFF" fill-opacity="1.000000" fill-rule="nonzero"/>
		</g>
	</g>
</svg>
