<svg width="298.000000" height="15.863770" viewBox="0 0 298 15.8638" fill="none" xmlns="http://www.w3.org/2000/svg" xmlns:xlink="http://www.w3.org/1999/xlink">
	<desc>
			Created with Pixso.
	</desc>
	<defs/>
	<path id="Даю згоду на оброблення персональних даних" d="M25.42 14.868L25.42 12.276L25.804 12.276C26.1 12.268 26.348 12.104 26.548 11.784C26.756 11.464 26.916 10.928 27.028 10.176C27.148 9.416 27.228 8.388 27.268 7.092L27.328 4.716L32.608 4.716L32.608 12.276L33.664 12.276L33.664 14.868L32.704 14.868L32.704 13.236L26.38 13.236L26.38 14.868L25.42 14.868ZM27.244 12.276L31.528 12.276L31.528 5.676L28.324 5.676L28.288 7.224C28.264 8.232 28.212 9.076 28.132 9.756C28.052 10.436 27.94 10.98 27.796 11.388C27.652 11.796 27.468 12.092 27.244 12.276ZM34.442 11.424C34.442 11.024 34.554 10.68 34.778 10.392C35.01 10.096 35.326 9.868 35.726 9.708C36.126 9.548 36.59 9.468 37.118 9.468C37.398 9.468 37.694 9.492 38.006 9.54C38.318 9.58 38.594 9.644 38.834 9.732L38.834 9.276C38.834 8.796 38.69 8.42 38.402 8.148C38.114 7.868 37.706 7.728 37.178 7.728C36.834 7.728 36.502 7.792 36.182 7.92C35.87 8.04 35.538 8.216 35.186 8.448L34.802 7.704C35.21 7.424 35.618 7.216 36.026 7.08C36.434 6.936 36.858 6.864 37.298 6.864C38.098 6.864 38.73 7.088 39.194 7.536C39.658 7.976 39.89 8.592 39.89 9.384L39.89 12.036C39.89 12.284 40.002 12.412 40.226 12.42L40.226 13.236C40.122 13.252 40.03 13.264 39.95 13.272C39.878 13.28 39.818 13.284 39.77 13.284C39.522 13.284 39.334 13.216 39.206 13.08C39.086 12.944 39.018 12.8 39.002 12.648L38.978 12.252C38.706 12.604 38.35 12.876 37.91 13.068C37.47 13.26 37.034 13.356 36.602 13.356C36.186 13.356 35.814 13.272 35.486 13.104C35.158 12.928 34.902 12.696 34.718 12.408C34.534 12.112 34.442 11.784 34.442 11.424ZM38.522 11.868C38.618 11.756 38.694 11.644 38.75 11.532C38.806 11.412 38.834 11.312 38.834 11.232L38.834 10.452C38.322 10.252 37.794 10.152 37.25 10.152C36.714 10.152 36.278 10.26 35.942 10.476C35.614 10.684 35.45 10.972 35.45 11.34C35.45 11.54 35.502 11.736 35.606 11.928C35.718 12.112 35.878 12.264 36.086 12.384C36.302 12.504 36.566 12.564 36.878 12.564C37.206 12.564 37.518 12.5 37.814 12.372C38.11 12.236 38.346 12.068 38.522 11.868ZM46.7506 13.356C46.1986 13.356 45.7106 13.236 45.2866 12.996C44.8626 12.756 44.5226 12.428 44.2666 12.012C44.0106 11.588 43.8546 11.108 43.7986 10.572L42.6346 10.572L42.6346 13.236L41.5786 13.236L41.5786 6.972L42.6346 6.972L42.6346 9.648L43.7986 9.648C43.8626 9.096 44.0226 8.612 44.2786 8.196C44.5426 7.772 44.8866 7.444 45.3106 7.212C45.7346 6.98 46.2146 6.864 46.7506 6.864C47.3826 6.864 47.9266 7.012 48.3826 7.308C48.8386 7.596 49.1906 7.984 49.4386 8.472C49.6866 8.96 49.8106 9.508 49.8106 10.116C49.8106 10.74 49.6826 11.296 49.4266 11.784C49.1786 12.272 48.8226 12.656 48.3586 12.936C47.9026 13.216 47.3666 13.356 46.7506 13.356ZM46.7506 12.444C47.1426 12.444 47.4866 12.344 47.7826 12.144C48.0786 11.944 48.3106 11.672 48.4786 11.328C48.6466 10.976 48.7306 10.572 48.7306 10.116C48.7306 9.636 48.6426 9.224 48.4666 8.88C48.2986 8.528 48.0626 8.256 47.7586 8.064C47.4626 7.872 47.1266 7.776 46.7506 7.776C46.3746 7.776 46.0386 7.876 45.7426 8.076C45.4546 8.268 45.2306 8.54 45.0706 8.892C44.9106 9.244 44.8306 9.652 44.8306 10.116C44.8306 10.828 45.0106 11.396 45.3706 11.82C45.7306 12.236 46.1906 12.444 46.7506 12.444ZM56.0853 13.32C55.4773 13.32 54.9613 13.208 54.5373 12.984C54.1213 12.752 53.8013 12.432 53.5773 12.024L54.4413 11.64C54.5853 11.896 54.7893 12.096 55.0533 12.24C55.3253 12.384 55.6533 12.456 56.0373 12.456C56.4933 12.456 56.8533 12.356 57.1173 12.156C57.3813 11.956 57.5133 11.688 57.5133 11.352C57.5133 11.048 57.4053 10.804 57.1893 10.62C56.9813 10.428 56.6853 10.328 56.3013 10.32L55.6653 10.32L55.6653 9.624L56.3373 9.624C56.5933 9.624 56.8013 9.536 56.9613 9.36C57.1293 9.176 57.2133 8.948 57.2133 8.676C57.2133 8.396 57.1133 8.172 56.9133 8.004C56.7133 7.828 56.4133 7.74 56.0133 7.74C55.3813 7.74 54.9293 7.996 54.6573 8.508L53.8533 8.076C54.0533 7.7 54.3413 7.408 54.7173 7.2C55.1013 6.984 55.5493 6.876 56.0613 6.876C56.6773 6.876 57.1813 7.024 57.5733 7.32C57.9653 7.608 58.1613 8.016 58.1613 8.544C58.1613 8.84 58.0893 9.116 57.9453 9.372C57.8093 9.62 57.6053 9.808 57.3333 9.936C57.7093 10.048 57.9973 10.244 58.1973 10.524C58.3973 10.796 58.4973 11.12 58.4973 11.496C58.4973 12.072 58.2693 12.52 57.8133 12.84C57.3653 13.16 56.7893 13.32 56.0853 13.32ZM59.7541 13.236L59.7541 6.972L63.6181 6.972L63.6181 7.908L60.8101 7.908L60.8101 13.236L59.7541 13.236ZM67.4357 13.356C66.8117 13.356 66.2597 13.208 65.7797 12.912C65.3077 12.608 64.9397 12.212 64.6757 11.724C64.4117 11.228 64.2797 10.692 64.2797 10.116C64.2797 9.532 64.4117 8.996 64.6757 8.508C64.9477 8.012 65.3197 7.616 65.7917 7.32C66.2717 7.016 66.8197 6.864 67.4357 6.864C68.0597 6.864 68.6077 7.016 69.0797 7.32C69.5597 7.616 69.9317 8.012 70.1957 8.508C70.4677 8.996 70.6037 9.532 70.6037 10.116C70.6037 10.692 70.4677 11.228 70.1957 11.724C69.9317 12.212 69.5637 12.608 69.0917 12.912C68.6197 13.208 68.0677 13.356 67.4357 13.356ZM65.3597 10.128C65.3597 10.56 65.4517 10.952 65.6357 11.304C65.8277 11.656 66.0797 11.936 66.3917 12.144C66.7037 12.344 67.0517 12.444 67.4357 12.444C67.8197 12.444 68.1677 12.34 68.4797 12.132C68.7997 11.924 69.0517 11.644 69.2357 11.292C69.4277 10.932 69.5237 10.536 69.5237 10.104C69.5237 9.672 69.4277 9.28 69.2357 8.928C69.0517 8.576 68.7997 8.296 68.4797 8.088C68.1677 7.88 67.8197 7.776 67.4357 7.776C67.0517 7.776 66.7037 7.884 66.3917 8.1C66.0797 8.308 65.8277 8.588 65.6357 8.94C65.4517 9.292 65.3597 9.688 65.3597 10.128ZM71.1872 14.712L71.1872 12.3L71.3192 12.3C71.5513 12.3 71.7592 12.204 71.9433 12.012C72.1353 11.812 72.2912 11.46 72.4113 10.956C72.5312 10.444 72.6032 9.72 72.6273 8.784L72.6872 6.972L76.9473 6.972L76.9473 12.3L77.7993 12.3L77.7993 14.712L76.8633 14.712L76.8633 13.236L72.1232 13.236L72.1232 14.712L71.1872 14.712ZM72.7952 12.3L75.8913 12.3L75.8913 7.908L73.6232 7.908L73.5872 8.88C73.5553 9.904 73.4713 10.68 73.3353 11.208C73.2072 11.736 73.0273 12.1 72.7952 12.3ZM79.7531 15.864C79.4891 15.864 79.2091 15.784 78.9131 15.624L79.2731 14.904C79.4091 14.984 79.5451 15.024 79.6811 15.024C80.0731 15.024 80.4171 14.66 80.7131 13.932L81.0131 13.176L78.2651 6.972L79.3811 6.972L81.4931 12.168L83.4011 6.972L84.4451 6.972L81.5171 14.256C81.3011 14.792 81.0411 15.192 80.7371 15.456C80.4331 15.728 80.1051 15.864 79.7531 15.864ZM88.2072 13.236L88.2072 6.972L89.2632 6.972L89.2632 9.564L92.5272 9.564L92.5272 6.972L93.5832 6.972L93.5832 13.236L92.5272 13.236L92.5272 10.5L89.2632 10.5L89.2632 13.236L88.2072 13.236ZM94.7936 11.424C94.7936 11.024 94.9056 10.68 95.1296 10.392C95.3616 10.096 95.6776 9.868 96.0776 9.708C96.4776 9.548 96.9416 9.468 97.4696 9.468C97.7496 9.468 98.0456 9.492 98.3576 9.54C98.6696 9.58 98.9456 9.644 99.1856 9.732L99.1856 9.276C99.1856 8.796 99.0416 8.42 98.7536 8.148C98.4656 7.868 98.0576 7.728 97.5296 7.728C97.1856 7.728 96.8536 7.792 96.5336 7.92C96.2216 8.04 95.8896 8.216 95.5376 8.448L95.1536 7.704C95.5616 7.424 95.9696 7.216 96.3776 7.08C96.7856 6.936 97.2096 6.864 97.6496 6.864C98.4496 6.864 99.0816 7.088 99.5456 7.536C100.01 7.976 100.242 8.592 100.242 9.384L100.242 12.036C100.242 12.284 100.354 12.412 100.578 12.42L100.578 13.236C100.474 13.252 100.382 13.264 100.302 13.272C100.23 13.28 100.17 13.284 100.122 13.284C99.8736 13.284 99.6856 13.216 99.5576 13.08C99.4376 12.944 99.3696 12.8 99.3536 12.648L99.3296 12.252C99.0576 12.604 98.7016 12.876 98.2616 13.068C97.8216 13.26 97.3856 13.356 96.9536 13.356C96.5376 13.356 96.1656 13.272 95.8376 13.104C95.5096 12.928 95.2536 12.696 95.0696 12.408C94.8856 12.112 94.7936 11.784 94.7936 11.424ZM98.8736 11.868C98.9696 11.756 99.0456 11.644 99.1016 11.532C99.1576 11.412 99.1856 11.312 99.1856 11.232L99.1856 10.452C98.6736 10.252 98.1456 10.152 97.6016 10.152C97.0656 10.152 96.6296 10.26 96.2936 10.476C95.9656 10.684 95.8016 10.972 95.8016 11.34C95.8016 11.54 95.8536 11.736 95.9576 11.928C96.0696 12.112 96.2296 12.264 96.4376 12.384C96.6536 12.504 96.9176 12.564 97.2296 12.564C97.5576 12.564 97.8696 12.5 98.1656 12.372C98.4616 12.236 98.6976 12.068 98.8736 11.868ZM107.701 13.356C107.077 13.356 106.525 13.208 106.045 12.912C105.573 12.608 105.205 12.212 104.941 11.724C104.677 11.228 104.545 10.692 104.545 10.116C104.545 9.532 104.677 8.996 104.941 8.508C105.213 8.012 105.585 7.616 106.057 7.32C106.537 7.016 107.085 6.864 107.701 6.864C108.325 6.864 108.873 7.016 109.345 7.32C109.825 7.616 110.197 8.012 110.461 8.508C110.733 8.996 110.869 9.532 110.869 10.116C110.869 10.692 110.733 11.228 110.461 11.724C110.197 12.212 109.829 12.608 109.357 12.912C108.885 13.208 108.333 13.356 107.701 13.356ZM105.625 10.128C105.625 10.56 105.717 10.952 105.901 11.304C106.093 11.656 106.345 11.936 106.657 12.144C106.969 12.344 107.317 12.444 107.701 12.444C108.085 12.444 108.433 12.34 108.745 12.132C109.065 11.924 109.317 11.644 109.501 11.292C109.693 10.932 109.789 10.536 109.789 10.104C109.789 9.672 109.693 9.28 109.501 8.928C109.317 8.576 109.065 8.296 108.745 8.088C108.433 7.88 108.085 7.776 107.701 7.776C107.317 7.776 106.969 7.884 106.657 8.1C106.345 8.308 106.093 8.588 105.901 8.94C105.717 9.292 105.625 9.688 105.625 10.128ZM115.101 13.356C114.069 13.356 113.289 13.044 112.761 12.42C112.233 11.796 111.969 10.916 111.969 9.78C111.969 9.004 112.033 8.352 112.161 7.824C112.289 7.288 112.481 6.848 112.737 6.504C112.993 6.152 113.309 5.868 113.685 5.652C114.061 5.428 114.493 5.244 114.981 5.1L117.633 4.296L117.693 5.208L115.113 5.988C114.673 6.132 114.305 6.316 114.009 6.54C113.713 6.764 113.481 7.052 113.313 7.404C113.145 7.756 113.033 8.208 112.977 8.76C113.185 8.336 113.497 8.008 113.913 7.776C114.329 7.536 114.813 7.416 115.365 7.416C115.957 7.416 116.465 7.54 116.889 7.788C117.321 8.028 117.649 8.368 117.873 8.808C118.105 9.24 118.221 9.74 118.221 10.308C118.221 10.916 118.101 11.448 117.861 11.904C117.621 12.36 117.269 12.716 116.805 12.972C116.341 13.228 115.773 13.356 115.101 13.356ZM115.101 12.444C115.749 12.444 116.249 12.256 116.601 11.88C116.961 11.496 117.141 10.988 117.141 10.356C117.141 9.74 116.965 9.24 116.613 8.856C116.261 8.472 115.757 8.28 115.101 8.28C114.517 8.28 114.029 8.46 113.637 8.82C113.253 9.18 113.061 9.692 113.061 10.356C113.061 10.964 113.237 11.464 113.589 11.856C113.941 12.248 114.445 12.444 115.101 12.444ZM122.88 13.356C122.368 13.356 121.912 13.228 121.512 12.972C121.112 12.716 120.796 12.392 120.564 12L120.564 15.792L119.508 15.792L119.508 6.972L120.444 6.972L120.444 8.148C120.692 7.764 121.016 7.456 121.416 7.224C121.816 6.984 122.252 6.864 122.724 6.864C123.156 6.864 123.552 6.952 123.912 7.128C124.272 7.304 124.584 7.544 124.848 7.848C125.112 8.152 125.316 8.5 125.46 8.892C125.612 9.276 125.688 9.68 125.688 10.104C125.688 10.696 125.568 11.24 125.328 11.736C125.096 12.232 124.768 12.628 124.344 12.924C123.92 13.212 123.432 13.356 122.88 13.356ZM122.556 12.444C122.972 12.444 123.332 12.332 123.636 12.108C123.94 11.884 124.176 11.592 124.344 11.232C124.52 10.872 124.608 10.496 124.608 10.104C124.608 9.68 124.512 9.292 124.32 8.94C124.136 8.588 123.88 8.308 123.552 8.1C123.232 7.884 122.868 7.776 122.46 7.776C122.212 7.776 121.948 7.84 121.668 7.968C121.396 8.096 121.156 8.268 120.948 8.484C120.748 8.692 120.62 8.924 120.564 9.18L120.564 10.968C120.74 11.384 121.008 11.736 121.368 12.024C121.736 12.304 122.132 12.444 122.556 12.444ZM129.721 13.356C129.097 13.356 128.545 13.208 128.065 12.912C127.593 12.608 127.225 12.212 126.961 11.724C126.697 11.228 126.565 10.692 126.565 10.116C126.565 9.532 126.697 8.996 126.961 8.508C127.233 8.012 127.605 7.616 128.077 7.32C128.557 7.016 129.105 6.864 129.721 6.864C130.345 6.864 130.893 7.016 131.365 7.32C131.845 7.616 132.217 8.012 132.481 8.508C132.753 8.996 132.889 9.532 132.889 10.116C132.889 10.692 132.753 11.228 132.481 11.724C132.217 12.212 131.849 12.608 131.377 12.912C130.905 13.208 130.353 13.356 129.721 13.356ZM127.645 10.128C127.645 10.56 127.737 10.952 127.921 11.304C128.113 11.656 128.365 11.936 128.677 12.144C128.989 12.344 129.337 12.444 129.721 12.444C130.105 12.444 130.453 12.34 130.765 12.132C131.085 11.924 131.337 11.644 131.521 11.292C131.713 10.932 131.809 10.536 131.809 10.104C131.809 9.672 131.713 9.28 131.521 8.928C131.337 8.576 131.085 8.296 130.765 8.088C130.453 7.88 130.105 7.776 129.721 7.776C129.337 7.776 128.989 7.884 128.677 8.1C128.365 8.308 128.113 8.588 127.921 8.94C127.737 9.292 127.645 9.688 127.645 10.128ZM137.12 13.356C136.088 13.356 135.308 13.044 134.78 12.42C134.252 11.796 133.988 10.916 133.988 9.78C133.988 9.004 134.052 8.352 134.18 7.824C134.308 7.288 134.5 6.848 134.756 6.504C135.012 6.152 135.328 5.868 135.704 5.652C136.08 5.428 136.512 5.244 137 5.1L139.652 4.296L139.712 5.208L137.132 5.988C136.692 6.132 136.324 6.316 136.028 6.54C135.732 6.764 135.5 7.052 135.332 7.404C135.164 7.756 135.052 8.208 134.996 8.76C135.204 8.336 135.516 8.008 135.932 7.776C136.348 7.536 136.832 7.416 137.384 7.416C137.976 7.416 138.484 7.54 138.908 7.788C139.34 8.028 139.668 8.368 139.892 8.808C140.124 9.24 140.24 9.74 140.24 10.308C140.24 10.916 140.12 11.448 139.88 11.904C139.64 12.36 139.288 12.716 138.824 12.972C138.36 13.228 137.792 13.356 137.12 13.356ZM137.12 12.444C137.768 12.444 138.268 12.256 138.62 11.88C138.98 11.496 139.16 10.988 139.16 10.356C139.16 9.74 138.984 9.24 138.632 8.856C138.28 8.472 137.776 8.28 137.12 8.28C136.536 8.28 136.048 8.46 135.656 8.82C135.272 9.18 135.08 9.692 135.08 10.356C135.08 10.964 135.256 11.464 135.608 11.856C135.96 12.248 136.464 12.444 137.12 12.444ZM140.976 13.284L140.976 12.336C141.248 12.328 141.488 12.228 141.696 12.036C141.904 11.844 142.068 11.492 142.188 10.98C142.316 10.468 142.396 9.736 142.428 8.784L142.5 6.972L146.76 6.972L146.76 13.236L145.704 13.236L145.704 7.908L143.436 7.908L143.412 8.88C143.372 10.016 143.256 10.904 143.064 11.544C142.88 12.184 142.612 12.632 142.26 12.888C141.916 13.144 141.488 13.276 140.976 13.284ZM151.237 13.356C150.613 13.356 150.061 13.208 149.581 12.912C149.101 12.616 148.725 12.22 148.453 11.724C148.181 11.228 148.045 10.688 148.045 10.104C148.045 9.512 148.181 8.972 148.453 8.484C148.725 7.996 149.101 7.604 149.581 7.308C150.069 7.012 150.625 6.864 151.249 6.864C151.881 6.864 152.429 7.016 152.893 7.32C153.365 7.616 153.729 8.008 153.985 8.496C154.249 8.976 154.381 9.496 154.381 10.056C154.381 10.232 154.373 10.368 154.357 10.464L149.161 10.464C149.193 10.872 149.305 11.236 149.497 11.556C149.697 11.868 149.953 12.116 150.265 12.3C150.577 12.476 150.913 12.564 151.273 12.564C151.657 12.564 152.017 12.468 152.353 12.276C152.697 12.084 152.933 11.832 153.061 11.52L153.973 11.772C153.773 12.236 153.425 12.616 152.929 12.912C152.433 13.208 151.869 13.356 151.237 13.356ZM149.125 9.732L153.397 9.732C153.365 9.324 153.249 8.964 153.049 8.652C152.849 8.34 152.593 8.096 152.281 7.92C151.969 7.744 151.625 7.656 151.249 7.656C150.881 7.656 150.541 7.744 150.229 7.92C149.917 8.096 149.661 8.34 149.461 8.652C149.269 8.964 149.157 9.324 149.125 9.732ZM155.543 13.236L155.543 6.972L156.599 6.972L156.599 9.564L159.863 9.564L159.863 6.972L160.919 6.972L160.919 13.236L159.863 13.236L159.863 10.5L156.599 10.5L156.599 13.236L155.543 13.236ZM162.61 13.236L162.61 6.972L163.666 6.972L163.666 9.564L166.93 9.564L166.93 6.972L167.986 6.972L167.986 13.236L166.93 13.236L166.93 10.5L163.666 10.5L163.666 13.236L162.61 13.236ZM169.22 13.236L170.996 10.716C170.588 10.636 170.26 10.444 170.012 10.14C169.764 9.828 169.64 9.412 169.64 8.892C169.64 8.516 169.728 8.184 169.904 7.896C170.08 7.608 170.324 7.38 170.636 7.212C170.956 7.044 171.328 6.96 171.752 6.96L174.32 6.96L174.32 13.236L173.264 13.236L173.264 10.884L172.04 10.884L170.384 13.236L169.22 13.236ZM171.824 10.104L173.264 10.104L173.264 7.788L171.944 7.788C171.568 7.788 171.268 7.896 171.044 8.112C170.82 8.32 170.708 8.588 170.708 8.916C170.708 9.244 170.8 9.524 170.984 9.756C171.176 9.988 171.456 10.104 171.824 10.104ZM179.051 13.236L179.051 6.972L184.247 6.972L184.247 13.236L183.191 13.236L183.191 7.908L180.107 7.908L180.107 13.236L179.051 13.236ZM188.726 13.356C188.102 13.356 187.55 13.208 187.07 12.912C186.59 12.616 186.214 12.22 185.942 11.724C185.67 11.228 185.534 10.688 185.534 10.104C185.534 9.512 185.67 8.972 185.942 8.484C186.214 7.996 186.59 7.604 187.07 7.308C187.558 7.012 188.114 6.864 188.738 6.864C189.37 6.864 189.918 7.016 190.382 7.32C190.854 7.616 191.218 8.008 191.474 8.496C191.738 8.976 191.87 9.496 191.87 10.056C191.87 10.232 191.862 10.368 191.846 10.464L186.65 10.464C186.682 10.872 186.794 11.236 186.986 11.556C187.186 11.868 187.442 12.116 187.754 12.3C188.066 12.476 188.402 12.564 188.762 12.564C189.146 12.564 189.506 12.468 189.842 12.276C190.186 12.084 190.422 11.832 190.55 11.52L191.462 11.772C191.262 12.236 190.914 12.616 190.418 12.912C189.922 13.208 189.358 13.356 188.726 13.356ZM186.614 9.732L190.886 9.732C190.854 9.324 190.738 8.964 190.538 8.652C190.338 8.34 190.082 8.096 189.77 7.92C189.458 7.744 189.114 7.656 188.738 7.656C188.37 7.656 188.03 7.744 187.718 7.92C187.406 8.096 187.15 8.34 186.95 8.652C186.758 8.964 186.646 9.324 186.614 9.732ZM196.415 13.356C195.903 13.356 195.447 13.228 195.047 12.972C194.647 12.716 194.331 12.392 194.099 12L194.099 15.792L193.043 15.792L193.043 6.972L193.979 6.972L193.979 8.148C194.227 7.764 194.551 7.456 194.951 7.224C195.351 6.984 195.787 6.864 196.259 6.864C196.691 6.864 197.087 6.952 197.447 7.128C197.807 7.304 198.119 7.544 198.383 7.848C198.647 8.152 198.851 8.5 198.995 8.892C199.147 9.276 199.223 9.68 199.223 10.104C199.223 10.696 199.103 11.24 198.863 11.736C198.631 12.232 198.303 12.628 197.879 12.924C197.455 13.212 196.967 13.356 196.415 13.356ZM196.091 12.444C196.507 12.444 196.867 12.332 197.171 12.108C197.475 11.884 197.711 11.592 197.879 11.232C198.055 10.872 198.143 10.496 198.143 10.104C198.143 9.68 198.047 9.292 197.855 8.94C197.671 8.588 197.415 8.308 197.087 8.1C196.767 7.884 196.403 7.776 195.995 7.776C195.747 7.776 195.483 7.84 195.203 7.968C194.931 8.096 194.691 8.268 194.483 8.484C194.283 8.692 194.155 8.924 194.099 9.18L194.099 10.968C194.275 11.384 194.543 11.736 194.903 12.024C195.271 12.304 195.667 12.444 196.091 12.444ZM203.292 13.356C202.668 13.356 202.116 13.208 201.636 12.912C201.156 12.608 200.78 12.208 200.508 11.712C200.236 11.216 200.1 10.676 200.1 10.092C200.1 9.5 200.232 8.96 200.496 8.472C200.76 7.984 201.132 7.596 201.612 7.308C202.092 7.012 202.648 6.864 203.28 6.864C203.896 6.864 204.432 7.004 204.888 7.284C205.352 7.556 205.696 7.924 205.92 8.388L204.888 8.712C204.728 8.416 204.504 8.188 204.216 8.028C203.928 7.86 203.608 7.776 203.256 7.776C202.872 7.776 202.52 7.876 202.2 8.076C201.888 8.276 201.64 8.552 201.456 8.904C201.272 9.248 201.18 9.644 201.18 10.092C201.18 10.532 201.272 10.932 201.456 11.292C201.648 11.644 201.9 11.924 202.212 12.132C202.532 12.34 202.884 12.444 203.268 12.444C203.516 12.444 203.752 12.4 203.976 12.312C204.208 12.224 204.408 12.108 204.576 11.964C204.752 11.812 204.872 11.648 204.936 11.472L205.968 11.784C205.784 12.24 205.448 12.616 204.96 12.912C204.48 13.208 203.924 13.356 203.292 13.356ZM209.842 13.356C209.218 13.356 208.666 13.208 208.186 12.912C207.714 12.608 207.346 12.212 207.082 11.724C206.818 11.228 206.686 10.692 206.686 10.116C206.686 9.532 206.818 8.996 207.082 8.508C207.354 8.012 207.726 7.616 208.198 7.32C208.678 7.016 209.226 6.864 209.842 6.864C210.466 6.864 211.014 7.016 211.486 7.32C211.966 7.616 212.338 8.012 212.602 8.508C212.874 8.996 213.01 9.532 213.01 10.116C213.01 10.692 212.874 11.228 212.602 11.724C212.338 12.212 211.97 12.608 211.498 12.912C211.026 13.208 210.474 13.356 209.842 13.356ZM207.766 10.128C207.766 10.56 207.858 10.952 208.042 11.304C208.234 11.656 208.486 11.936 208.798 12.144C209.11 12.344 209.458 12.444 209.842 12.444C210.226 12.444 210.574 12.34 210.886 12.132C211.206 11.924 211.458 11.644 211.642 11.292C211.834 10.932 211.93 10.536 211.93 10.104C211.93 9.672 211.834 9.28 211.642 8.928C211.458 8.576 211.206 8.296 210.886 8.088C210.574 7.88 210.226 7.776 209.842 7.776C209.458 7.776 209.11 7.884 208.798 8.1C208.486 8.308 208.234 8.588 208.042 8.94C207.858 9.292 207.766 9.688 207.766 10.128ZM214.277 13.236L214.277 6.972L215.333 6.972L215.333 9.564L218.598 9.564L218.598 6.972L219.654 6.972L219.654 13.236L218.598 13.236L218.598 10.5L215.333 10.5L215.333 13.236L214.277 13.236ZM220.864 11.424C220.864 11.024 220.976 10.68 221.2 10.392C221.432 10.096 221.748 9.868 222.148 9.708C222.548 9.548 223.012 9.468 223.54 9.468C223.82 9.468 224.116 9.492 224.428 9.54C224.74 9.58 225.016 9.644 225.256 9.732L225.256 9.276C225.256 8.796 225.112 8.42 224.824 8.148C224.536 7.868 224.128 7.728 223.6 7.728C223.256 7.728 222.924 7.792 222.604 7.92C222.292 8.04 221.96 8.216 221.608 8.448L221.224 7.704C221.632 7.424 222.04 7.216 222.448 7.08C222.856 6.936 223.28 6.864 223.72 6.864C224.52 6.864 225.152 7.088 225.616 7.536C226.08 7.976 226.312 8.592 226.312 9.384L226.312 12.036C226.312 12.284 226.424 12.412 226.648 12.42L226.648 13.236C226.544 13.252 226.452 13.264 226.372 13.272C226.3 13.28 226.24 13.284 226.192 13.284C225.944 13.284 225.756 13.216 225.628 13.08C225.508 12.944 225.44 12.8 225.424 12.648L225.4 12.252C225.128 12.604 224.772 12.876 224.332 13.068C223.892 13.26 223.456 13.356 223.024 13.356C222.608 13.356 222.236 13.272 221.908 13.104C221.58 12.928 221.324 12.696 221.14 12.408C220.956 12.112 220.864 11.784 220.864 11.424ZM224.944 11.868C225.04 11.756 225.116 11.644 225.172 11.532C225.228 11.412 225.256 11.312 225.256 11.232L225.256 10.452C224.744 10.252 224.216 10.152 223.672 10.152C223.136 10.152 222.7 10.26 222.364 10.476C222.036 10.684 221.872 10.972 221.872 11.34C221.872 11.54 221.924 11.736 222.028 11.928C222.14 12.112 222.3 12.264 222.508 12.384C222.724 12.504 222.988 12.564 223.3 12.564C223.628 12.564 223.94 12.5 224.236 12.372C224.532 12.236 224.768 12.068 224.944 11.868ZM227.448 13.284L227.448 12.336C227.72 12.328 227.96 12.228 228.168 12.036C228.376 11.844 228.54 11.492 228.66 10.98C228.788 10.468 228.868 9.736 228.9 8.784L228.972 6.972L233.232 6.972L233.232 13.236L232.176 13.236L232.176 7.908L229.908 7.908L229.884 8.88C229.844 10.016 229.728 10.904 229.536 11.544C229.352 12.184 229.084 12.632 228.732 12.888C228.388 13.144 227.96 13.276 227.448 13.284ZM234.926 13.236L234.926 6.972L235.982 6.972L235.982 9.108L237.542 9.108C238.278 9.108 238.834 9.296 239.21 9.672C239.594 10.04 239.786 10.524 239.786 11.124C239.786 11.724 239.602 12.228 239.234 12.636C238.866 13.036 238.326 13.236 237.614 13.236L234.926 13.236ZM235.982 12.408L237.47 12.408C237.91 12.408 238.226 12.284 238.418 12.036C238.618 11.78 238.718 11.484 238.718 11.148C238.718 10.82 238.626 10.536 238.442 10.296C238.258 10.056 237.926 9.936 237.446 9.936L235.982 9.936L235.982 12.408ZM240.926 13.236L240.926 6.972L241.982 6.972L241.982 9.564L245.246 9.564L245.246 6.972L246.302 6.972L246.302 13.236L245.246 13.236L245.246 10.5L241.982 10.5L241.982 13.236L240.926 13.236ZM247.992 13.236L247.992 6.984L249.048 6.984L249.048 11.82L252.552 6.972L253.512 6.972L253.512 13.236L252.456 13.236L252.456 8.496L249 13.236L247.992 13.236ZM255.668 6.972L257.324 9.276L257.42 9.468L257.528 9.276L259.172 6.972L260.348 6.972L258.032 10.116L260.36 13.236L259.184 13.236L257.528 10.944L257.42 10.764L257.324 10.944L255.668 13.236L254.492 13.236L256.82 10.116L254.504 6.972L255.668 6.972ZM263.691 14.712L263.691 12.3L263.823 12.3C264.055 12.3 264.263 12.204 264.447 12.012C264.639 11.812 264.795 11.46 264.915 10.956C265.035 10.444 265.107 9.72 265.131 8.784L265.191 6.972L269.451 6.972L269.451 12.3L270.303 12.3L270.303 14.712L269.367 14.712L269.367 13.236L264.627 13.236L264.627 14.712L263.691 14.712ZM265.299 12.3L268.395 12.3L268.395 7.908L266.127 7.908L266.091 8.88C266.059 9.904 265.975 10.68 265.839 11.208C265.711 11.736 265.531 12.1 265.299 12.3ZM270.985 11.424C270.985 11.024 271.097 10.68 271.321 10.392C271.553 10.096 271.869 9.868 272.269 9.708C272.669 9.548 273.133 9.468 273.661 9.468C273.941 9.468 274.237 9.492 274.549 9.54C274.861 9.58 275.137 9.644 275.377 9.732L275.377 9.276C275.377 8.796 275.233 8.42 274.945 8.148C274.657 7.868 274.249 7.728 273.721 7.728C273.377 7.728 273.045 7.792 272.725 7.92C272.413 8.04 272.081 8.216 271.729 8.448L271.345 7.704C271.753 7.424 272.161 7.216 272.569 7.08C272.977 6.936 273.401 6.864 273.841 6.864C274.641 6.864 275.273 7.088 275.737 7.536C276.201 7.976 276.433 8.592 276.433 9.384L276.433 12.036C276.433 12.284 276.545 12.412 276.769 12.42L276.769 13.236C276.665 13.252 276.573 13.264 276.493 13.272C276.421 13.28 276.361 13.284 276.313 13.284C276.065 13.284 275.877 13.216 275.749 13.08C275.629 12.944 275.561 12.8 275.545 12.648L275.521 12.252C275.249 12.604 274.893 12.876 274.453 13.068C274.013 13.26 273.577 13.356 273.145 13.356C272.729 13.356 272.357 13.272 272.029 13.104C271.701 12.928 271.445 12.696 271.261 12.408C271.077 12.112 270.985 11.784 270.985 11.424ZM275.065 11.868C275.161 11.756 275.237 11.644 275.293 11.532C275.349 11.412 275.377 11.312 275.377 11.232L275.377 10.452C274.865 10.252 274.337 10.152 273.793 10.152C273.257 10.152 272.821 10.26 272.485 10.476C272.157 10.684 271.993 10.972 271.993 11.34C271.993 11.54 272.045 11.736 272.149 11.928C272.261 12.112 272.421 12.264 272.629 12.384C272.845 12.504 273.109 12.564 273.421 12.564C273.749 12.564 274.061 12.5 274.357 12.372C274.653 12.236 274.889 12.068 275.065 11.868ZM278.11 13.236L278.11 6.972L279.166 6.972L279.166 9.564L282.43 9.564L282.43 6.972L283.486 6.972L283.486 13.236L282.43 13.236L282.43 10.5L279.166 10.5L279.166 13.236L278.11 13.236ZM285.176 13.236L285.176 6.984L286.232 6.984L286.232 11.82L289.736 6.972L290.696 6.972L290.696 13.236L289.64 13.236L289.64 8.496L286.184 13.236L285.176 13.236ZM292.851 6.972L294.507 9.276L294.603 9.468L294.711 9.276L296.355 6.972L297.531 6.972L295.215 10.116L297.543 13.236L296.367 13.236L294.711 10.944L294.603 10.764L294.507 10.944L292.851 13.236L291.675 13.236L294.003 10.116L291.687 6.972L292.851 6.972Z" fill="#FFFFFF" fill-opacity="1.000000" fill-rule="evenodd"/>
	<rect id="Rectangle 18" x="1.000000" y="1.000000" width="13.000000" height="13.000000" stroke="#FFFFFF" stroke-opacity="1.000000" stroke-width="2.000000"/>
	<rect id="Rectangle 19" x="5.000000" y="5.000000" width="5.000000" height="5.000000" fill="#FFFFFF" fill-opacity="1.000000"/>
</svg>
