<svg width="106.000000" height="134.000000" viewBox="0 0 106 134" fill="none" xmlns="http://www.w3.org/2000/svg" xmlns:xlink="http://www.w3.org/1999/xlink">
	<desc>
			Created with Pixso.
	</desc>
	<defs>
		<filter id="filter_221_62_dd" x="4.000000" y="0.000000" width="98.000000" height="98.000000" filterUnits="userSpaceOnUse" color-interpolation-filters="sRGB">
			<feFlood flood-opacity="0" result="BackgroundImageFix"/>
			<feColorMatrix in="SourceAlpha" type="matrix" values="0 0 0 0 0 0 0 0 0 0 0 0 0 0 0 0 0 0 127 0" result="hardAlpha"/>
			<feOffset dx="0" dy="10"/>
			<feGaussianBlur stdDeviation="5"/>
			<feComposite in2="hardAlpha" operator="out" k2="-1" k3="1"/>
			<feColorMatrix type="matrix" values="0 0 0 0 0 0 0 0 0 0 0 0 0 0 0 0 0 0 0.25 0"/>
			<feBlend mode="normal" in2="BackgroundImageFix" result="effect_dropShadow_1"/>
			<feBlend mode="normal" in="SourceGraphic" in2="effect_dropShadow_1" result="shape"/>
		</filter>
		<clipPath id="clip221_62">
			<rect id="door 1" width="68.000000" height="68.000000" transform="translate(19.000000 5.000000)" fill="white" fill-opacity="0"/>
		</clipPath>
	</defs>
	<g opacity="0.500000">
		<path id="Дверима" d="M0.84 130.236L0.84 125.052L1.608 125.052C2.2 125.036 2.696 124.708 3.096 124.068C3.512 123.428 3.832 122.356 4.056 120.852C4.296 119.332 4.456 117.276 4.536 114.684L4.656 109.932L15.216 109.932L15.216 125.052L17.328 125.052L17.328 130.236L15.408 130.236L15.408 126.972L2.76 126.972L2.76 130.236L0.84 130.236ZM4.488 125.052L13.056 125.052L13.056 111.852L6.648 111.852L6.576 114.948C6.528 116.964 6.424 118.652 6.264 120.012C6.104 121.372 5.88 122.46 5.592 123.276C5.304 124.092 4.936 124.684 4.488 125.052ZM19.8441 126.972L19.8441 114.444L26.3241 114.444C27.0761 114.444 27.7001 114.596 28.1961 114.9C28.6921 115.188 29.0601 115.564 29.3001 116.028C29.5561 116.492 29.6841 116.988 29.6841 117.516C29.6841 118.188 29.5241 118.796 29.2041 119.34C28.8841 119.868 28.4201 120.268 27.8121 120.54C28.5321 120.748 29.1161 121.124 29.5641 121.668C30.0121 122.196 30.2361 122.852 30.2361 123.636C30.2361 124.692 29.8601 125.516 29.1081 126.108C28.3721 126.684 27.4041 126.972 26.2041 126.972L19.8441 126.972ZM21.8601 119.964L25.7721 119.964C26.3321 119.964 26.7881 119.756 27.1401 119.34C27.5081 118.908 27.6921 118.42 27.6921 117.876C27.6921 117.348 27.5161 116.892 27.1641 116.508C26.8281 116.124 26.3881 115.932 25.8441 115.932L21.8601 115.932L21.8601 119.964ZM21.8601 125.484L26.1561 125.484C26.7321 125.484 27.2121 125.276 27.5961 124.86C27.9961 124.444 28.1961 123.964 28.1961 123.42C28.1961 122.86 28.0041 122.38 27.6201 121.98C27.2521 121.564 26.7881 121.356 26.2281 121.356L21.8601 121.356L21.8601 125.484ZM38.4668 127.212C37.2188 127.212 36.1147 126.916 35.1548 126.324C34.1947 125.732 33.4427 124.94 32.8988 123.948C32.3548 122.956 32.0827 121.876 32.0827 120.708C32.0827 119.524 32.3548 118.444 32.8988 117.468C33.4427 116.492 34.1947 115.708 35.1548 115.116C36.1307 114.524 37.2428 114.228 38.4907 114.228C39.7548 114.228 40.8507 114.532 41.7788 115.14C42.7227 115.732 43.4508 116.516 43.9627 117.492C44.4908 118.452 44.7547 119.492 44.7547 120.612C44.7547 120.964 44.7388 121.236 44.7067 121.428L34.3148 121.428C34.3787 122.244 34.6027 122.972 34.9868 123.612C35.3867 124.236 35.8988 124.732 36.5228 125.1C37.1468 125.452 37.8187 125.628 38.5387 125.628C39.3068 125.628 40.0267 125.436 40.6987 125.052C41.3867 124.668 41.8587 124.164 42.1147 123.54L43.9388 124.044C43.5387 124.972 42.8428 125.732 41.8507 126.324C40.8587 126.916 39.7308 127.212 38.4668 127.212ZM34.2428 119.964L42.7868 119.964C42.7227 119.148 42.4907 118.428 42.0908 117.804C41.6908 117.18 41.1787 116.692 40.5547 116.34C39.9308 115.988 39.2428 115.812 38.4907 115.812C37.7547 115.812 37.0747 115.988 36.4508 116.34C35.8268 116.692 35.3148 117.18 34.9147 117.804C34.5308 118.428 34.3068 119.148 34.2428 119.964ZM53.8464 127.212C52.8224 127.212 51.9104 126.956 51.1104 126.444C50.3104 125.932 49.6784 125.284 49.2144 124.5L49.2144 132.084L47.1024 132.084L47.1024 114.444L48.9744 114.444L48.9744 116.796C49.4704 116.028 50.1184 115.412 50.9184 114.948C51.7184 114.468 52.5904 114.228 53.5344 114.228C54.3984 114.228 55.1904 114.404 55.9104 114.756C56.6304 115.108 57.2544 115.588 57.7824 116.196C58.3104 116.804 58.7184 117.5 59.0064 118.284C59.3104 119.052 59.4624 119.86 59.4624 120.708C59.4624 121.892 59.2224 122.98 58.7424 123.972C58.2784 124.964 57.6224 125.756 56.7744 126.348C55.9264 126.924 54.9504 127.212 53.8464 127.212ZM53.1984 125.388C54.0304 125.388 54.7504 125.164 55.3584 124.716C55.9664 124.268 56.4384 123.684 56.7744 122.964C57.1264 122.244 57.3024 121.492 57.3024 120.708C57.3024 119.86 57.1104 119.084 56.7264 118.38C56.3584 117.676 55.8464 117.116 55.1904 116.7C54.5504 116.268 53.8224 116.052 53.0064 116.052C52.5104 116.052 51.9824 116.18 51.4224 116.436C50.8784 116.692 50.3984 117.036 49.9824 117.468C49.5824 117.884 49.3264 118.348 49.2144 118.86L49.2144 122.436C49.5664 123.268 50.1024 123.972 50.8224 124.548C51.5584 125.108 52.3504 125.388 53.1984 125.388ZM62.0316 126.972L62.0316 114.468L64.1436 114.468L64.1436 124.14L71.1516 114.444L73.0716 114.444L73.0716 126.972L70.9596 126.972L70.9596 117.492L64.0476 126.972L62.0316 126.972ZM76.4222 126.972L76.4222 114.444L78.6062 114.444L83.2622 122.652L87.9422 114.444L90.0782 114.444L90.0782 126.972L88.0622 126.972L88.0622 117.492L83.9342 124.74L82.5902 124.74L78.4382 117.492L78.4382 126.972L76.4222 126.972ZM92.5013 123.348C92.5013 122.548 92.7253 121.86 93.1732 121.284C93.6373 120.692 94.2692 120.236 95.0693 119.916C95.8692 119.596 96.7972 119.436 97.8532 119.436C98.4133 119.436 99.0052 119.484 99.6292 119.58C100.253 119.66 100.805 119.788 101.285 119.964L101.285 119.052C101.285 118.092 100.997 117.34 100.421 116.796C99.8453 116.236 99.0293 115.956 97.9733 115.956C97.2852 115.956 96.6212 116.084 95.9812 116.34C95.3573 116.58 94.6933 116.932 93.9893 117.396L93.2213 115.908C94.0372 115.348 94.8532 114.932 95.6693 114.66C96.4853 114.372 97.3333 114.228 98.2132 114.228C99.8132 114.228 101.077 114.676 102.005 115.572C102.933 116.452 103.397 117.684 103.397 119.268L103.397 124.572C103.397 125.068 103.621 125.324 104.069 125.34L104.069 126.972C103.861 127.004 103.677 127.028 103.517 127.044C103.373 127.06 103.253 127.068 103.157 127.068C102.661 127.068 102.285 126.932 102.029 126.66C101.789 126.388 101.653 126.1 101.621 125.796L101.573 125.004C101.029 125.708 100.317 126.252 99.4372 126.636C98.5573 127.02 97.6852 127.212 96.8213 127.212C95.9893 127.212 95.2452 127.044 94.5892 126.708C93.9333 126.356 93.4212 125.892 93.0533 125.316C92.6852 124.724 92.5013 124.068 92.5013 123.348ZM100.661 124.236C100.853 124.012 101.005 123.788 101.117 123.564C101.229 123.324 101.285 123.124 101.285 122.964L101.285 121.404C100.261 121.004 99.2053 120.804 98.1172 120.804C97.0452 120.804 96.1732 121.02 95.5013 121.452C94.8453 121.868 94.5173 122.444 94.5173 123.18C94.5173 123.58 94.6212 123.972 94.8292 124.356C95.0533 124.724 95.3733 125.028 95.7893 125.268C96.2213 125.508 96.7493 125.628 97.3733 125.628C98.0293 125.628 98.6533 125.5 99.2453 125.244C99.8372 124.972 100.309 124.636 100.661 124.236Z" fill="#FFFFFF" fill-opacity="1.000000" fill-rule="evenodd"/>
	</g>
	<g filter="url(#filter_221_62_dd)">
		<rect id="door 1" width="68.000000" height="68.000000" transform="translate(19.000000 5.000000)" fill="#FFFFFF" fill-opacity="0"/>
		<g clip-path="url(#clip221_62)">
			<path id="Vector" d="M50.3969 14.0525L50.3969 63.9475L50.3969 68.4631L69.5219 64.0005L69.5219 9.60059L50.3969 14.0525Z" stroke="#FFFFFF" stroke-opacity="1.000000" stroke-width="3.000000" stroke-linejoin="round"/>
			<path id="Vector" d="M69.5219 9.60083L69.5219 9.54761L36.4781 9.54761L36.4781 63.9475L50.3969 63.9475" stroke="#FFFFFF" stroke-opacity="1.000000" stroke-width="3.000000" stroke-linejoin="round" stroke-linecap="round"/>
			<path id="Vector" d="M57.0375 40.6362L57.0375 34.8137" stroke="#FFFFFF" stroke-opacity="1.000000" stroke-width="3.000000" stroke-linejoin="round" stroke-linecap="round"/>
		</g>
	</g>
</svg>
