<svg width="148.000000" height="135.000000" viewBox="0 0 148 135" fill="none" xmlns="http://www.w3.org/2000/svg" xmlns:xlink="http://www.w3.org/1999/xlink">
	<desc>
			Created with Pixso.
	</desc>
	<defs>
		<filter id="filter_221_52_dd" x="36.000000" y="0.000000" width="76.000000" height="99.000000" filterUnits="userSpaceOnUse" color-interpolation-filters="sRGB">
			<feFlood flood-opacity="0" result="BackgroundImageFix"/>
			<feColorMatrix in="SourceAlpha" type="matrix" values="0 0 0 0 0 0 0 0 0 0 0 0 0 0 0 0 0 0 127 0" result="hardAlpha"/>
			<feOffset dx="0" dy="10"/>
			<feGaussianBlur stdDeviation="5"/>
			<feComposite in2="hardAlpha" operator="out" k2="-1" k3="1"/>
			<feColorMatrix type="matrix" values="0 0 0 0 0 0 0 0 0 0 0 0 0 0 0 0 0 0 0.25 0"/>
			<feBlend mode="normal" in2="BackgroundImageFix" result="effect_dropShadow_1"/>
			<feBlend mode="normal" in="SourceGraphic" in2="effect_dropShadow_1" result="shape"/>
		</filter>
		<clipPath id="clip221_52">
			<rect id="furniture (1) 1" width="46.000000" height="69.000000" transform="translate(51.000000 5.000000)" fill="white" fill-opacity="0"/>
		</clipPath>
	</defs>
	<g opacity="0.500000">
		<path id="Освітленням" d="M8.952 128.092C7.752 128.092 6.664 127.852 5.688 127.372C4.712 126.892 3.864 126.244 3.144 125.428C2.44 124.596 1.896 123.668 1.512 122.644C1.128 121.604 0.936 120.54 0.936 119.452C0.936 118.316 1.136 117.236 1.536 116.212C1.952 115.172 2.52 114.252 3.24 113.452C3.976 112.636 4.832 111.996 5.808 111.532C6.784 111.052 7.848 110.812 9 110.812C10.2 110.812 11.288 111.06 12.264 111.556C13.24 112.052 14.08 112.716 14.784 113.548C15.488 114.38 16.032 115.308 16.416 116.332C16.8 117.356 16.992 118.404 16.992 119.476C16.992 120.612 16.792 121.7 16.392 122.74C15.992 123.764 15.424 124.684 14.688 125.5C13.968 126.3 13.12 126.932 12.144 127.396C11.168 127.86 10.104 128.092 8.952 128.092ZM3.12 119.452C3.12 120.316 3.256 121.156 3.528 121.972C3.816 122.772 4.216 123.484 4.728 124.108C5.24 124.732 5.856 125.228 6.576 125.596C7.296 125.964 8.096 126.148 8.976 126.148C9.888 126.148 10.704 125.956 11.424 125.572C12.144 125.188 12.752 124.676 13.248 124.036C13.76 123.396 14.144 122.676 14.4 121.876C14.672 121.076 14.808 120.268 14.808 119.452C14.808 118.588 14.664 117.756 14.376 116.956C14.104 116.156 13.704 115.444 13.176 114.82C12.664 114.18 12.048 113.684 11.328 113.332C10.624 112.964 9.84 112.78 8.976 112.78C8.064 112.78 7.248 112.972 6.528 113.356C5.808 113.724 5.192 114.228 4.68 114.868C4.184 115.508 3.8 116.228 3.528 117.028C3.256 117.812 3.12 118.62 3.12 119.452ZM25.2011 128.212C23.9531 128.212 22.8491 127.916 21.8891 127.324C20.9291 126.716 20.1771 125.916 19.6331 124.924C19.0891 123.932 18.8171 122.852 18.8171 121.684C18.8171 120.5 19.0811 119.42 19.6091 118.444C20.1371 117.468 20.8811 116.692 21.8411 116.116C22.8011 115.524 23.9131 115.228 25.1771 115.228C26.4091 115.228 27.4811 115.508 28.3931 116.068C29.3211 116.612 30.0091 117.348 30.4571 118.276L28.3931 118.924C28.0731 118.332 27.6251 117.876 27.0491 117.556C26.4731 117.22 25.8331 117.052 25.1291 117.052C24.3611 117.052 23.6571 117.252 23.0171 117.652C22.3931 118.052 21.8971 118.604 21.5291 119.308C21.1611 119.996 20.9771 120.788 20.9771 121.684C20.9771 122.564 21.1611 123.364 21.5291 124.084C21.9131 124.788 22.4171 125.348 23.0411 125.764C23.6811 126.18 24.3851 126.388 25.1531 126.388C25.6491 126.388 26.1211 126.3 26.5691 126.124C27.0331 125.948 27.4331 125.716 27.7691 125.428C28.1211 125.124 28.3611 124.796 28.4891 124.444L30.5531 125.068C30.1851 125.98 29.5131 126.732 28.5371 127.324C27.5771 127.916 26.4651 128.212 25.2011 128.212ZM32.9222 127.972L32.9222 115.444L39.4022 115.444C40.1542 115.444 40.7782 115.596 41.2742 115.9C41.7702 116.188 42.1382 116.564 42.3782 117.028C42.6342 117.492 42.7622 117.988 42.7622 118.516C42.7622 119.188 42.6022 119.796 42.2822 120.34C41.9622 120.868 41.4982 121.268 40.8902 121.54C41.6102 121.748 42.1942 122.124 42.6422 122.668C43.0902 123.196 43.3142 123.852 43.3142 124.636C43.3142 125.692 42.9382 126.516 42.1862 127.108C41.4502 127.684 40.4822 127.972 39.2822 127.972L32.9222 127.972ZM34.9382 120.964L38.8502 120.964C39.4102 120.964 39.8662 120.756 40.2182 120.34C40.5862 119.908 40.7702 119.42 40.7702 118.876C40.7702 118.348 40.5942 117.892 40.2422 117.508C39.9062 117.124 39.4662 116.932 38.9222 116.932L34.9382 116.932L34.9382 120.964ZM34.9382 126.484L39.2342 126.484C39.8102 126.484 40.2902 126.276 40.6742 125.86C41.0742 125.444 41.2742 124.964 41.2742 124.42C41.2742 123.86 41.0822 123.38 40.6982 122.98C40.3302 122.564 39.8662 122.356 39.3062 122.356L34.9382 122.356L34.9382 126.484ZM46.0009 113.092L46.0009 110.452L48.1129 110.452L48.1129 113.092L46.0009 113.092ZM46.0009 127.972L46.0009 115.444L48.1129 115.444L48.1129 127.972L46.0009 127.972ZM54.5801 127.972L54.5801 117.316L50.2601 117.316L50.2601 115.444L61.0121 115.444L61.0121 117.316L56.6921 117.316L56.6921 127.972L54.5801 127.972ZM62.0297 128.068L62.0297 126.172C62.5737 126.156 63.0537 125.956 63.4697 125.572C63.8857 125.188 64.2137 124.484 64.4537 123.46C64.7097 122.436 64.8697 120.972 64.9337 119.068L65.0777 115.444L73.5977 115.444L73.5977 127.972L71.4857 127.972L71.4857 117.316L66.9497 117.316L66.9017 119.26C66.8217 121.532 66.5897 123.308 66.2057 124.588C65.8377 125.868 65.3017 126.764 64.5977 127.276C63.9097 127.788 63.0537 128.052 62.0297 128.068ZM82.5527 128.212C81.3047 128.212 80.2007 127.916 79.2407 127.324C78.2807 126.732 77.5287 125.94 76.9847 124.948C76.4407 123.956 76.1687 122.876 76.1687 121.708C76.1687 120.524 76.4407 119.444 76.9847 118.468C77.5287 117.492 78.2807 116.708 79.2407 116.116C80.2167 115.524 81.3287 115.228 82.5767 115.228C83.8407 115.228 84.9367 115.532 85.8647 116.14C86.8087 116.732 87.5367 117.516 88.0487 118.492C88.5767 119.452 88.8407 120.492 88.8407 121.612C88.8407 121.964 88.8247 122.236 88.7927 122.428L78.4007 122.428C78.4647 123.244 78.6887 123.972 79.0727 124.612C79.4727 125.236 79.9847 125.732 80.6087 126.1C81.2327 126.452 81.9047 126.628 82.6247 126.628C83.3927 126.628 84.1127 126.436 84.7847 126.052C85.4727 125.668 85.9447 125.164 86.2007 124.54L88.0247 125.044C87.6247 125.972 86.9287 126.732 85.9367 127.324C84.9447 127.916 83.8167 128.212 82.5527 128.212ZM78.3287 120.964L86.8727 120.964C86.8087 120.148 86.5767 119.428 86.1767 118.804C85.7767 118.18 85.2647 117.692 84.6407 117.34C84.0167 116.988 83.3287 116.812 82.5767 116.812C81.8407 116.812 81.1607 116.988 80.5367 117.34C79.9127 117.692 79.4007 118.18 79.0007 118.804C78.6167 119.428 78.3927 120.148 78.3287 120.964ZM91.1644 127.972L91.1644 115.444L93.2764 115.444L93.2764 120.628L99.8044 120.628L99.8044 115.444L101.916 115.444L101.916 127.972L99.8044 127.972L99.8044 122.5L93.2764 122.5L93.2764 127.972L91.1644 127.972ZM105.297 127.972L105.297 115.444L107.409 115.444L107.409 120.628L113.937 120.628L113.937 115.444L116.049 115.444L116.049 127.972L113.937 127.972L113.937 122.5L107.409 122.5L107.409 127.972L105.297 127.972ZM118.518 127.972L122.07 122.932C121.254 122.772 120.598 122.388 120.102 121.78C119.606 121.156 119.358 120.324 119.358 119.284C119.358 118.532 119.534 117.868 119.886 117.292C120.238 116.716 120.726 116.26 121.35 115.924C121.99 115.588 122.734 115.42 123.582 115.42L128.718 115.42L128.718 127.972L126.606 127.972L126.606 123.268L124.158 123.268L120.846 127.972L118.518 127.972ZM123.726 121.708L126.606 121.708L126.606 117.076L123.966 117.076C123.214 117.076 122.614 117.292 122.166 117.724C121.718 118.14 121.494 118.676 121.494 119.332C121.494 119.988 121.678 120.548 122.046 121.012C122.43 121.476 122.99 121.708 123.726 121.708ZM132.11 127.972L132.11 115.444L134.294 115.444L138.95 123.652L143.63 115.444L145.766 115.444L145.766 127.972L143.75 127.972L143.75 118.492L139.622 125.74L138.278 125.74L134.126 118.492L134.126 127.972L132.11 127.972Z" fill="#FFFFFF" fill-opacity="1.000000" fill-rule="evenodd"/>
	</g>
	<g filter="url(#filter_221_52_dd)">
		<rect id="furniture (1) 1" width="46.000000" height="69.000000" transform="translate(51.000000 5.000000)" fill="#FFFFFF" fill-opacity="0"/>
		<g clip-path="url(#clip221_52)">
			<path id="Vector" d="M95.465 52.0372C95.7401 52.0372 96.0039 51.9266 96.1984 51.73C96.3929 51.5333 96.5022 51.2665 96.5022 50.9883C96.5022 37.3673 88.0185 28.4452 74.7917 28.0046L74.7917 6.04883C74.7917 5.77063 74.6824 5.50391 74.4879 5.30725C74.2934 5.11047 74.0296 5 73.7546 5C73.4795 5 73.2157 5.11047 73.0212 5.30725C72.8267 5.50391 72.7174 5.77063 72.7174 6.04883L72.7174 28.0046C59.4837 28.4452 51 37.3673 51 50.9883C51 51.2665 51.1093 51.5333 51.3038 51.73C51.4983 51.9266 51.7621 52.0372 52.0371 52.0372L65.5543 52.0372C65.855 54.0352 66.8402 55.8627 68.3377 57.2008C69.8353 58.5389 71.7501 59.3025 73.7476 59.3582C75.7464 59.3041 77.6628 58.5413 79.1618 57.203C80.6608 55.8647 81.6469 54.0363 81.9478 52.0372L95.465 52.0372ZM73.7476 30.0814C83.5104 30.0814 93.9301 35.3256 94.4072 49.9395L53.0743 49.9395C53.5652 35.3256 63.9848 30.0814 73.7476 30.0814ZM73.7476 57.2605C72.3009 57.2043 70.9146 56.6593 69.8102 55.7124C68.7059 54.7655 67.9475 53.4714 67.6562 52.0372L79.8459 52.0372C79.5544 53.4725 78.7949 54.7675 77.6892 55.7145C76.5836 56.6615 75.1956 57.2059 73.7476 57.2605ZM96.592 64.7981L90.155 59.8336C89.9359 59.6648 89.6594 59.5911 89.3864 59.6284C89.1135 59.6658 88.8664 59.8113 88.6995 60.0328C88.5327 60.2545 88.4597 60.5341 88.4966 60.8101C88.5336 61.0862 88.6774 61.3361 88.8966 61.5048L95.3337 66.4692C95.5528 66.6381 95.8293 66.7119 96.1022 66.6744C96.2374 66.656 96.3676 66.6107 96.4855 66.5414C96.6033 66.4719 96.7065 66.3798 96.7891 66.27C96.8718 66.1603 96.9322 66.0352 96.967 65.9019C97.0018 65.7684 97.0103 65.6295 96.992 65.4928C96.9738 65.3561 96.929 65.2245 96.8604 65.1052C96.7917 64.9861 96.7006 64.8817 96.592 64.7981ZM59.0273 59.7498L52.77 64.938C52.6429 65.0165 52.5339 65.1218 52.4507 65.2468C52.3674 65.3717 52.3117 65.5133 52.2874 65.662C52.2631 65.8107 52.2708 65.9628 52.3098 66.1082C52.3489 66.2537 52.4185 66.3888 52.5139 66.5045C52.6093 66.6202 52.7282 66.7139 52.8625 66.7789C52.9969 66.8441 53.1436 66.8792 53.2925 66.8817C53.4415 66.8844 53.5893 66.8545 53.7258 66.7942C53.8623 66.7339 53.9844 66.6445 54.0837 66.5322L60.348 61.351C60.4578 61.2653 60.5495 61.1581 60.6177 61.0359C60.6859 60.9137 60.7291 60.7789 60.7449 60.6395C60.7606 60.5001 60.7485 60.359 60.7094 60.2244C60.6702 60.0898 60.6047 59.9645 60.5168 59.856C60.4289 59.7474 60.3204 59.6578 60.1976 59.5924C60.0748 59.5271 59.9404 59.4873 59.8021 59.4755C59.6639 59.4636 59.5247 59.4799 59.3928 59.5233C59.2609 59.5669 59.139 59.6367 59.0342 59.7288L59.0273 59.7498ZM74.0519 64.5814C73.7768 64.5814 73.513 64.6919 73.3185 64.8885C73.124 65.0852 73.0147 65.3521 73.0147 65.6302L73.0147 72.9512C73.0147 73.2294 73.124 73.4961 73.3185 73.6927C73.513 73.8895 73.7768 74 74.0519 74C74.3269 74 74.5907 73.8895 74.7852 73.6927C74.9797 73.4961 75.089 73.2294 75.089 72.9512L75.089 65.6302C75.089 65.3521 74.9797 65.0852 74.7852 64.8885C74.5907 64.6919 74.3269 64.5814 74.0519 64.5814Z" fill="#FFFFFF" fill-opacity="1.000000" fill-rule="nonzero"/>
		</g>
	</g>
</svg>
