<svg width="157.000000" height="18.000000" viewBox="0 0 157 18" fill="none" xmlns="http://www.w3.org/2000/svg" xmlns:xlink="http://www.w3.org/1999/xlink">
	<desc>
			Created with Pixso.
	</desc>
	<defs>
		<clipPath id="clip226_23">
			<rect id="file (1) 1" width="18.000000" height="18.000000" fill="white" fill-opacity="0"/>
		</clipPath>
	</defs>
	<g opacity="0.500000">
		<path id="Прикріпити проект" d="M29.19 13.942L29.19 4.002L36.862 4.002L36.862 13.942L35.602 13.942L35.602 5.122L30.45 5.122L30.45 13.942L29.19 13.942ZM42.9768 14.082C42.3795 14.082 41.8475 13.9327 41.3808 13.634C40.9142 13.3353 40.5455 12.9573 40.2748 12.5L40.2748 16.924L39.0428 16.924L39.0428 6.634L40.1348 6.634L40.1348 8.006C40.4242 7.558 40.8022 7.19867 41.2688 6.928C41.7355 6.648 42.2442 6.508 42.7948 6.508C43.2988 6.508 43.7608 6.61067 44.1808 6.816C44.6008 7.02133 44.9648 7.30133 45.2728 7.656C45.5808 8.01067 45.8188 8.41667 45.9868 8.874C46.1642 9.322 46.2528 9.79333 46.2528 10.288C46.2528 10.9787 46.1128 11.6133 45.8328 12.192C45.5622 12.7707 45.1795 13.2327 44.6848 13.578C44.1902 13.914 43.6208 14.082 42.9768 14.082ZM42.5988 13.018C43.0842 13.018 43.5042 12.8873 43.8588 12.626C44.2135 12.3647 44.4888 12.024 44.6848 11.604C44.8902 11.184 44.9928 10.7453 44.9928 10.288C44.9928 9.79333 44.8808 9.34067 44.6568 8.93C44.4422 8.51933 44.1435 8.19267 43.7608 7.95C43.3875 7.698 42.9628 7.572 42.4868 7.572C42.1975 7.572 41.8895 7.64667 41.5628 7.796C41.2455 7.94533 40.9655 8.146 40.7228 8.398C40.4895 8.64067 40.3402 8.91133 40.2748 9.21L40.2748 11.296C40.4802 11.7813 40.7928 12.192 41.2128 12.528C41.6422 12.8547 42.1042 13.018 42.5988 13.018ZM47.7515 13.942L47.7515 6.648L48.9835 6.648L48.9835 12.29L53.0715 6.634L54.1915 6.634L54.1915 13.942L52.9595 13.942L52.9595 8.412L48.9275 13.942L47.7515 13.942ZM56.146 13.942L56.146 6.634L57.378 6.634L57.378 9.644L58.19 9.644L60.486 6.634L61.886 6.634L59.156 10.176L62.208 13.942L60.78 13.942L58.19 10.778L57.378 10.778L57.378 13.942L56.146 13.942ZM67.3538 14.082C66.7564 14.082 66.2244 13.9327 65.7578 13.634C65.2911 13.3353 64.9224 12.9573 64.6518 12.5L64.6518 16.924L63.4198 16.924L63.4198 6.634L64.5118 6.634L64.5118 8.006C64.8011 7.558 65.1791 7.19867 65.6458 6.928C66.1124 6.648 66.6211 6.508 67.1718 6.508C67.6758 6.508 68.1378 6.61067 68.5578 6.816C68.9778 7.02133 69.3418 7.30133 69.6498 7.656C69.9578 8.01067 70.1958 8.41667 70.3638 8.874C70.5411 9.322 70.6298 9.79333 70.6298 10.288C70.6298 10.9787 70.4898 11.6133 70.2098 12.192C69.9391 12.7707 69.5564 13.2327 69.0618 13.578C68.5671 13.914 67.9978 14.082 67.3538 14.082ZM66.9758 13.018C67.4611 13.018 67.8811 12.8873 68.2358 12.626C68.5904 12.3647 68.8658 12.024 69.0618 11.604C69.2671 11.184 69.3698 10.7453 69.3698 10.288C69.3698 9.79333 69.2578 9.34067 69.0338 8.93C68.8191 8.51933 68.5204 8.19267 68.1378 7.95C67.7645 7.698 67.3398 7.572 66.8638 7.572C66.5744 7.572 66.2664 7.64667 65.9398 7.796C65.6225 7.94533 65.3425 8.146 65.0998 8.398C64.8664 8.64067 64.7171 8.91133 64.6518 9.21L64.6518 11.296C64.8571 11.7813 65.1698 12.192 65.5898 12.528C66.0191 12.8547 66.4811 13.018 66.9758 13.018ZM72.1424 5.262L72.1424 3.722L73.3744 3.722L73.3744 5.262L72.1424 5.262ZM72.1424 13.942L72.1424 6.634L73.3744 6.634L73.3744 13.942L72.1424 13.942ZM75.355 13.942L75.355 6.634L81.417 6.634L81.417 13.942L80.185 13.942L80.185 7.726L76.587 7.726L76.587 13.942L75.355 13.942ZM83.3941 13.942L83.3941 6.648L84.6261 6.648L84.6261 12.29L88.7141 6.634L89.8341 6.634L89.8341 13.942L88.6021 13.942L88.6021 8.412L84.5701 13.942L83.3941 13.942ZM93.5806 13.942L93.5806 7.726L91.0606 7.726L91.0606 6.634L97.3326 6.634L97.3326 7.726L94.8126 7.726L94.8126 13.942L93.5806 13.942ZM98.5562 13.942L98.5562 6.648L99.7882 6.648L99.7882 12.29L103.876 6.634L104.996 6.634L104.996 13.942L103.764 13.942L103.764 8.412L99.7322 13.942L98.5562 13.942ZM110.492 13.942L110.492 6.634L116.554 6.634L116.554 13.942L115.322 13.942L115.322 7.726L111.724 7.726L111.724 13.942L110.492 13.942ZM122.479 14.082C121.881 14.082 121.349 13.9327 120.883 13.634C120.416 13.3353 120.047 12.9573 119.777 12.5L119.777 16.924L118.545 16.924L118.545 6.634L119.637 6.634L119.637 8.006C119.926 7.558 120.304 7.19867 120.771 6.928C121.237 6.648 121.746 6.508 122.297 6.508C122.801 6.508 123.263 6.61067 123.683 6.816C124.103 7.02133 124.467 7.30133 124.775 7.656C125.083 8.01067 125.321 8.41667 125.489 8.874C125.666 9.322 125.755 9.79333 125.755 10.288C125.755 10.9787 125.615 11.6133 125.335 12.192C125.064 12.7707 124.681 13.2327 124.187 13.578C123.692 13.914 123.123 14.082 122.479 14.082ZM122.101 13.018C122.586 13.018 123.006 12.8873 123.361 12.626C123.715 12.3647 123.991 12.024 124.187 11.604C124.392 11.184 124.495 10.7453 124.495 10.288C124.495 9.79333 124.383 9.34067 124.159 8.93C123.944 8.51933 123.645 8.19267 123.263 7.95C122.889 7.698 122.465 7.572 121.989 7.572C121.699 7.572 121.391 7.64667 121.065 7.796C120.747 7.94533 120.467 8.146 120.225 8.398C119.991 8.64067 119.842 8.91133 119.777 9.21L119.777 11.296C119.982 11.7813 120.295 12.192 120.715 12.528C121.144 12.8547 121.606 13.018 122.101 13.018ZM130.459 14.082C129.731 14.082 129.087 13.9093 128.527 13.564C127.977 13.2093 127.547 12.7473 127.239 12.178C126.931 11.5993 126.777 10.974 126.777 10.302C126.777 9.62067 126.931 8.99533 127.239 8.426C127.557 7.84733 127.991 7.38533 128.541 7.04C129.101 6.68533 129.741 6.508 130.459 6.508C131.187 6.508 131.827 6.68533 132.377 7.04C132.937 7.38533 133.371 7.84733 133.679 8.426C133.997 8.99533 134.155 9.62067 134.155 10.302C134.155 10.974 133.997 11.5993 133.679 12.178C133.371 12.7473 132.942 13.2093 132.391 13.564C131.841 13.9093 131.197 14.082 130.459 14.082ZM128.037 10.316C128.037 10.82 128.145 11.2773 128.359 11.688C128.583 12.0987 128.877 12.4253 129.241 12.668C129.605 12.9013 130.011 13.018 130.459 13.018C130.907 13.018 131.313 12.8967 131.677 12.654C132.051 12.4113 132.345 12.0847 132.559 11.674C132.783 11.254 132.895 10.792 132.895 10.288C132.895 9.784 132.783 9.32667 132.559 8.916C132.345 8.50533 132.051 8.17867 131.677 7.936C131.313 7.69333 130.907 7.572 130.459 7.572C130.011 7.572 129.605 7.698 129.241 7.95C128.877 8.19267 128.583 8.51933 128.359 8.93C128.145 9.34067 128.037 9.80267 128.037 10.316ZM138.882 14.082C138.154 14.082 137.51 13.9093 136.95 13.564C136.39 13.2187 135.952 12.7567 135.634 12.178C135.317 11.5993 135.158 10.9693 135.158 10.288C135.158 9.59733 135.317 8.96733 135.634 8.398C135.952 7.82867 136.39 7.37133 136.95 7.026C137.52 6.68067 138.168 6.508 138.896 6.508C139.634 6.508 140.273 6.68533 140.814 7.04C141.365 7.38533 141.79 7.84267 142.088 8.412C142.396 8.972 142.55 9.57867 142.55 10.232C142.55 10.4373 142.541 10.596 142.522 10.708L136.46 10.708C136.498 11.184 136.628 11.6087 136.852 11.982C137.086 12.346 137.384 12.6353 137.748 12.85C138.112 13.0553 138.504 13.158 138.924 13.158C139.372 13.158 139.792 13.046 140.184 12.822C140.586 12.598 140.861 12.304 141.01 11.94L142.074 12.234C141.841 12.7753 141.435 13.2187 140.856 13.564C140.278 13.9093 139.62 14.082 138.882 14.082ZM136.418 9.854L141.402 9.854C141.365 9.378 141.23 8.958 140.996 8.594C140.763 8.23 140.464 7.94533 140.1 7.74C139.736 7.53467 139.335 7.432 138.896 7.432C138.467 7.432 138.07 7.53467 137.706 7.74C137.342 7.94533 137.044 8.23 136.81 8.594C136.586 8.958 136.456 9.378 136.418 9.854ZM143.906 13.942L143.906 6.634L145.138 6.634L145.138 9.644L145.95 9.644L148.246 6.634L149.646 6.634L146.916 10.176L149.968 13.942L148.54 13.942L145.95 10.778L145.138 10.778L145.138 13.942L143.906 13.942ZM152.958 13.942L152.958 7.726L150.438 7.726L150.438 6.634L156.71 6.634L156.71 7.726L154.19 7.726L154.19 13.942L152.958 13.942Z" fill="#FFFFFF" fill-opacity="1.000000" fill-rule="evenodd"/>
		<rect id="file (1) 1" width="18.000000" height="18.000000" fill="#FFFFFF" fill-opacity="0"/>
		<g clip-path="url(#clip226_23)">
			<path id="Vector" d="M16.0312 4.78125C16.125 4.875 16.2188 4.99561 16.3125 5.14307L11.5714 5.14307L11.5714 0.401855C11.7188 0.495605 11.8393 0.589355 11.933 0.683105L16.0312 4.78125ZM11.25 6.42871L16.7143 6.42871L16.7143 17.0356C16.7143 17.3037 16.6205 17.5312 16.433 17.7188C16.2455 17.9062 16.0179 18 15.75 18L2.25 18C1.98215 18 1.75447 17.9062 1.56697 17.7188C1.37947 17.5312 1.28572 17.3037 1.28572 17.0356L1.28572 0.964355C1.28572 0.696289 1.37947 0.46875 1.56697 0.28125C1.75447 0.09375 1.98215 0 2.25 0L10.2857 0L10.2857 5.46436C10.2857 5.73193 10.3795 5.95996 10.567 6.14746C10.7545 6.33496 10.9821 6.42871 11.25 6.42871ZM12.8571 13.8213L12.8571 13.1787C12.8571 13.085 12.827 13.0078 12.7668 12.9478C12.7065 12.8872 12.6295 12.8569 12.5357 12.8569L5.46429 12.8569C5.37054 12.8569 5.29353 12.8872 5.23326 12.9478C5.173 13.0078 5.14287 13.085 5.14287 13.1787L5.14287 13.8213C5.14287 13.915 5.173 13.9922 5.23326 14.0522C5.29353 14.1128 5.37054 14.1431 5.46429 14.1431L12.5357 14.1431C12.6295 14.1431 12.7065 14.1128 12.7668 14.0522C12.827 13.9922 12.8571 13.915 12.8571 13.8213ZM12.8571 11.25L12.8571 10.6069C12.8571 10.5132 12.827 10.4365 12.7668 10.376C12.7065 10.3159 12.6295 10.2856 12.5357 10.2856L5.46429 10.2856C5.37054 10.2856 5.29353 10.3159 5.23326 10.376C5.173 10.4365 5.14287 10.5132 5.14287 10.6069L5.14287 11.25C5.14287 11.3438 5.173 11.4209 5.23326 11.481C5.29353 11.5415 5.37054 11.5713 5.46429 11.5713L12.5357 11.5713C12.6295 11.5713 12.7065 11.5415 12.7668 11.481C12.827 11.4209 12.8571 11.3438 12.8571 11.25ZM12.8571 8.67871L12.8571 8.03564C12.8571 7.94189 12.827 7.86475 12.7668 7.80469C12.7065 7.74463 12.6295 7.71436 12.5357 7.71436L5.46429 7.71436C5.37054 7.71436 5.29353 7.74463 5.23326 7.80469C5.173 7.86475 5.14287 7.94189 5.14287 8.03564L5.14287 8.67871C5.14287 8.77246 5.173 8.84912 5.23326 8.90967C5.29353 8.96973 5.37054 9 5.46429 9L12.5357 9C12.6295 9 12.7065 8.96973 12.7668 8.90967C12.827 8.84912 12.8571 8.77246 12.8571 8.67871Z" fill="#FFFFFF" fill-opacity="1.000000" fill-rule="nonzero"/>
		</g>
	</g>
</svg>
