<svg width="183.000000" height="132.000000" viewBox="0 0 183 132" fill="none" xmlns="http://www.w3.org/2000/svg" xmlns:xlink="http://www.w3.org/1999/xlink">
	<desc>
			Created with Pixso.
	</desc>
	<defs>
		<filter id="filter_221_68_dd" x="44.000000" y="0.000000" width="96.000000" height="96.000000" filterUnits="userSpaceOnUse" color-interpolation-filters="sRGB">
			<feFlood flood-opacity="0" result="BackgroundImageFix"/>
			<feColorMatrix in="SourceAlpha" type="matrix" values="0 0 0 0 0 0 0 0 0 0 0 0 0 0 0 0 0 0 127 0" result="hardAlpha"/>
			<feOffset dx="0" dy="10"/>
			<feGaussianBlur stdDeviation="5"/>
			<feComposite in2="hardAlpha" operator="out" k2="-1" k3="1"/>
			<feColorMatrix type="matrix" values="0 0 0 0 0 0 0 0 0 0 0 0 0 0 0 0 0 0 0.25 0"/>
			<feBlend mode="normal" in2="BackgroundImageFix" result="effect_dropShadow_1"/>
			<feBlend mode="normal" in="SourceGraphic" in2="effect_dropShadow_1" result="shape"/>
		</filter>
		<clipPath id="clip221_68">
			<rect id="brainstorm 1" width="66.000000" height="66.000000" transform="translate(59.000000 5.000000)" fill="white" fill-opacity="0"/>
		</clipPath>
	</defs>
	<g opacity="0.500000">
		<path id="Проектуванням" d="M2.04 124.972L2.04 107.932L15.192 107.932L15.192 124.972L13.032 124.972L13.032 109.852L4.2 109.852L4.2 124.972L2.04 124.972ZM25.6746 125.212C24.6506 125.212 23.7386 124.956 22.9386 124.444C22.1386 123.932 21.5066 123.284 21.0426 122.5L21.0426 130.084L18.9306 130.084L18.9306 112.444L20.8026 112.444L20.8026 114.796C21.2986 114.028 21.9466 113.412 22.7466 112.948C23.5466 112.468 24.4186 112.228 25.3626 112.228C26.2266 112.228 27.0186 112.404 27.7386 112.756C28.4586 113.108 29.0826 113.588 29.6106 114.196C30.1386 114.804 30.5466 115.5 30.8346 116.284C31.1386 117.052 31.2906 117.86 31.2906 118.708C31.2906 119.892 31.0506 120.98 30.5706 121.972C30.1066 122.964 29.4506 123.756 28.6026 124.348C27.7546 124.924 26.7786 125.212 25.6746 125.212ZM25.0266 123.388C25.8586 123.388 26.5786 123.164 27.1866 122.716C27.7946 122.268 28.2666 121.684 28.6026 120.964C28.9546 120.244 29.1306 119.492 29.1306 118.708C29.1306 117.86 28.9386 117.084 28.5546 116.38C28.1866 115.676 27.6746 115.116 27.0186 114.7C26.3786 114.268 25.6506 114.052 24.8346 114.052C24.3386 114.052 23.8106 114.18 23.2506 114.436C22.7066 114.692 22.2266 115.036 21.8106 115.468C21.4106 115.884 21.1546 116.348 21.0426 116.86L21.0426 120.436C21.3946 121.268 21.9306 121.972 22.6506 122.548C23.3866 123.108 24.1786 123.388 25.0266 123.388ZM39.3557 125.212C38.1077 125.212 37.0037 124.916 36.0437 124.324C35.0997 123.716 34.3637 122.924 33.8357 121.948C33.3077 120.956 33.0437 119.884 33.0437 118.732C33.0437 117.564 33.3077 116.492 33.8357 115.516C34.3797 114.524 35.1237 113.732 36.0677 113.14C37.0277 112.532 38.1237 112.228 39.3557 112.228C40.6037 112.228 41.6997 112.532 42.6437 113.14C43.6037 113.732 44.3477 114.524 44.8757 115.516C45.4197 116.492 45.6917 117.564 45.6917 118.732C45.6917 119.884 45.4197 120.956 44.8757 121.948C44.3477 122.924 43.6117 123.716 42.6677 124.324C41.7237 124.916 40.6197 125.212 39.3557 125.212ZM35.2037 118.756C35.2037 119.62 35.3877 120.404 35.7557 121.108C36.1397 121.812 36.6437 122.372 37.2677 122.788C37.8917 123.188 38.5877 123.388 39.3557 123.388C40.1237 123.388 40.8197 123.18 41.4437 122.764C42.0837 122.348 42.5877 121.788 42.9557 121.084C43.3397 120.364 43.5317 119.572 43.5317 118.708C43.5317 117.844 43.3397 117.06 42.9557 116.356C42.5877 115.652 42.0837 115.092 41.4437 114.676C40.8197 114.26 40.1237 114.052 39.3557 114.052C38.5877 114.052 37.8917 114.268 37.2677 114.7C36.6437 115.116 36.1397 115.676 35.7557 116.38C35.3877 117.084 35.2037 117.876 35.2037 118.756ZM53.7949 125.212C52.5469 125.212 51.4429 124.916 50.4829 124.324C49.5229 123.732 48.7709 122.94 48.2269 121.948C47.6829 120.956 47.4109 119.876 47.4109 118.708C47.4109 117.524 47.6829 116.444 48.2269 115.468C48.7709 114.492 49.5229 113.708 50.4829 113.116C51.4589 112.524 52.5709 112.228 53.8189 112.228C55.0829 112.228 56.1789 112.532 57.1069 113.14C58.0509 113.732 58.7789 114.516 59.2909 115.492C59.8189 116.452 60.0829 117.492 60.0829 118.612C60.0829 118.964 60.0669 119.236 60.0349 119.428L49.6429 119.428C49.7069 120.244 49.9309 120.972 50.3149 121.612C50.7149 122.236 51.2269 122.732 51.8509 123.1C52.4749 123.452 53.1469 123.628 53.8669 123.628C54.6349 123.628 55.3549 123.436 56.0269 123.052C56.7149 122.668 57.1869 122.164 57.4429 121.54L59.2669 122.044C58.8669 122.972 58.1709 123.732 57.1789 124.324C56.1869 124.916 55.0589 125.212 53.7949 125.212ZM49.5709 117.964L58.1149 117.964C58.0509 117.148 57.8189 116.428 57.4189 115.804C57.0189 115.18 56.5069 114.692 55.8829 114.34C55.2589 113.988 54.5709 113.812 53.8189 113.812C53.0829 113.812 52.4029 113.988 51.7789 114.34C51.1549 114.692 50.6429 115.18 50.2429 115.804C49.8589 116.428 49.6349 117.148 49.5709 117.964ZM62.4066 124.972L62.4066 112.444L64.5186 112.444L64.5186 117.604L65.9106 117.604L69.8466 112.444L72.2466 112.444L67.5666 118.516L72.7986 124.972L70.3506 124.972L65.9106 119.548L64.5186 119.548L64.5186 124.972L62.4066 124.972ZM77.9239 124.972L77.9239 114.316L73.6039 114.316L73.6039 112.444L84.3559 112.444L84.3559 114.316L80.0359 114.316L80.0359 124.972L77.9239 124.972ZM88.0374 130.228C87.5094 130.228 86.9494 130.068 86.3574 129.748L87.0774 128.308C87.3494 128.468 87.6214 128.548 87.8934 128.548C88.6774 128.548 89.3654 127.82 89.9574 126.364L90.5574 124.852L85.0614 112.444L87.2934 112.444L91.5174 122.836L95.3334 112.444L97.4214 112.444L91.5654 127.012C91.1334 128.084 90.6134 128.884 90.0054 129.412C89.3974 129.956 88.7414 130.228 88.0374 130.228ZM99.5316 124.972L99.5316 112.444L106.012 112.444C106.764 112.444 107.388 112.596 107.884 112.9C108.38 113.188 108.748 113.564 108.988 114.028C109.244 114.492 109.372 114.988 109.372 115.516C109.372 116.188 109.212 116.796 108.892 117.34C108.572 117.868 108.108 118.268 107.5 118.54C108.22 118.748 108.804 119.124 109.252 119.668C109.7 120.196 109.924 120.852 109.924 121.636C109.924 122.692 109.548 123.516 108.796 124.108C108.06 124.684 107.092 124.972 105.892 124.972L99.5316 124.972ZM101.548 117.964L105.46 117.964C106.02 117.964 106.476 117.756 106.828 117.34C107.196 116.908 107.38 116.42 107.38 115.876C107.38 115.348 107.204 114.892 106.852 114.508C106.516 114.124 106.076 113.932 105.532 113.932L101.548 113.932L101.548 117.964ZM101.548 123.484L105.844 123.484C106.42 123.484 106.9 123.276 107.284 122.86C107.684 122.444 107.884 121.964 107.884 121.42C107.884 120.86 107.692 120.38 107.308 119.98C106.94 119.564 106.476 119.356 105.916 119.356L101.548 119.356L101.548 123.484ZM111.626 121.348C111.626 120.548 111.85 119.86 112.298 119.284C112.762 118.692 113.394 118.236 114.194 117.916C114.994 117.596 115.922 117.436 116.978 117.436C117.538 117.436 118.13 117.484 118.754 117.58C119.378 117.66 119.93 117.788 120.41 117.964L120.41 117.052C120.41 116.092 120.122 115.34 119.546 114.796C118.97 114.236 118.154 113.956 117.098 113.956C116.41 113.956 115.746 114.084 115.106 114.34C114.482 114.58 113.818 114.932 113.114 115.396L112.346 113.908C113.162 113.348 113.978 112.932 114.794 112.66C115.61 112.372 116.458 112.228 117.338 112.228C118.938 112.228 120.202 112.676 121.13 113.572C122.058 114.452 122.522 115.684 122.522 117.268L122.522 122.572C122.522 123.068 122.746 123.324 123.194 123.34L123.194 124.972C122.986 125.004 122.802 125.028 122.642 125.044C122.498 125.06 122.378 125.068 122.282 125.068C121.786 125.068 121.41 124.932 121.154 124.66C120.914 124.388 120.778 124.1 120.746 123.796L120.698 123.004C120.154 123.708 119.442 124.252 118.562 124.636C117.682 125.02 116.81 125.212 115.946 125.212C115.114 125.212 114.37 125.044 113.714 124.708C113.058 124.356 112.546 123.892 112.178 123.316C111.81 122.724 111.626 122.068 111.626 121.348ZM119.786 122.236C119.978 122.012 120.13 121.788 120.242 121.564C120.354 121.324 120.41 121.124 120.41 120.964L120.41 119.404C119.386 119.004 118.33 118.804 117.242 118.804C116.17 118.804 115.298 119.02 114.626 119.452C113.97 119.868 113.642 120.444 113.642 121.18C113.642 121.58 113.746 121.972 113.954 122.356C114.178 122.724 114.498 123.028 114.914 123.268C115.346 123.508 115.874 123.628 116.498 123.628C117.154 123.628 117.778 123.5 118.37 123.244C118.962 122.972 119.434 122.636 119.786 122.236ZM125.875 124.972L125.875 112.444L127.987 112.444L127.987 117.628L134.515 117.628L134.515 112.444L136.627 112.444L136.627 124.972L134.515 124.972L134.515 119.5L127.987 119.5L127.987 124.972L125.875 124.972ZM140.008 124.972L140.008 112.444L142.12 112.444L142.12 117.628L148.648 117.628L148.648 112.444L150.76 112.444L150.76 124.972L148.648 124.972L148.648 119.5L142.12 119.5L142.12 124.972L140.008 124.972ZM153.229 124.972L156.781 119.932C155.965 119.772 155.309 119.388 154.813 118.78C154.317 118.156 154.069 117.324 154.069 116.284C154.069 115.532 154.245 114.868 154.597 114.292C154.949 113.716 155.437 113.26 156.061 112.924C156.701 112.588 157.445 112.42 158.293 112.42L163.429 112.42L163.429 124.972L161.317 124.972L161.317 120.268L158.869 120.268L155.557 124.972L153.229 124.972ZM158.437 118.708L161.317 118.708L161.317 114.076L158.677 114.076C157.925 114.076 157.325 114.292 156.877 114.724C156.429 115.14 156.205 115.676 156.205 116.332C156.205 116.988 156.389 117.548 156.757 118.012C157.141 118.476 157.701 118.708 158.437 118.708ZM166.821 124.972L166.821 112.444L169.005 112.444L173.661 120.652L178.341 112.444L180.477 112.444L180.477 124.972L178.461 124.972L178.461 115.492L174.333 122.74L172.989 122.74L168.837 115.492L168.837 124.972L166.821 124.972Z" fill="#FFFFFF" fill-opacity="1.000000" fill-rule="evenodd"/>
	</g>
	<g filter="url(#filter_221_68_dd)">
		<rect id="brainstorm 1" width="66.000000" height="66.000000" transform="translate(59.000000 5.000000)" fill="#FFFFFF" fill-opacity="0"/>
		<g clip-path="url(#clip221_68)">
			<path id="Vector" d="M111.449 16.6738C111.507 13.7009 110.409 10.8218 108.385 8.6438C106.36 6.46582 103.569 5.15942 100.6 5C98.6238 4.99854 96.6919 5.5874 95.0522 6.69116C92.976 5.58521 90.6604 5.00464 88.3079 5C84.9739 5.1084 81.7583 6.26196 79.1157 8.29761C76.4731 10.3333 74.5372 13.1479 73.5817 16.3438C71.0865 17.0908 68.9093 18.6438 67.3905 20.7598C65.8717 22.8755 65.0969 25.4351 65.1873 28.0381C65.0449 31.0679 66.105 34.0312 68.1368 36.2832C70.1686 38.5352 73.0077 39.8936 76.036 40.0625L82.2854 40.0625L74.9429 53.407C74.8777 53.52 74.8423 53.6477 74.8397 53.7781C74.8229 53.8242 74.8158 53.8735 74.8191 53.9226L73.9735 62.3787L73.9735 62.4612L73.2722 69.4531C73.2522 69.6528 73.2926 69.854 73.3882 70.0305C73.4839 70.207 73.6302 70.3508 73.8085 70.4431C73.9865 70.5366 74.187 70.5784 74.3875 70.564C74.5879 70.5493 74.7804 70.479 74.9429 70.3606L80.5116 66.0088L87.1941 60.77C87.3671 60.6899 87.5059 60.551 87.5859 60.3782L98.7854 40.0625L107.964 40.0625C110.992 39.8936 113.831 38.5352 115.863 36.2832C117.894 34.0312 118.955 31.0679 118.812 28.0381C118.875 25.6221 118.205 23.2437 116.891 21.2156C115.577 19.1873 113.68 17.604 111.449 16.6738ZM84.6572 40.0625L89.3597 40.0625L80.8622 55.49L77.2528 53.51L84.6572 40.0625ZM75.5616 67.2463L75.9122 63.6492C76.8477 63.8816 77.7056 64.356 78.3997 65.0249L75.5616 67.2463ZM80.0372 63.74L80.0166 63.7566C78.9642 62.6619 77.6053 61.9114 76.1185 61.6033L76.1185 61.5745L76.7167 55.5518L80.7179 57.7793C80.7385 57.7793 80.7385 57.8 80.7592 57.8C80.7798 57.8 80.7798 57.8206 80.8004 57.8206L84.8016 60.0276L80.0372 63.74ZM86.2866 58.4807L86.266 58.4807L82.6772 56.48L91.7109 40.0625L96.4135 40.0625L86.2866 58.4807ZM107.964 38L76.036 38C73.5548 37.8308 71.2406 36.6899 69.5956 34.8247C67.9506 32.9597 67.1077 30.521 67.2498 28.0381C67.1517 25.8342 67.8101 23.6633 69.1156 21.885C70.4211 20.1069 72.2953 18.8284 74.4272 18.262L74.4685 18.262C76.6 18.4233 78.5829 19.4148 79.9908 21.0232C81.3987 22.6316 82.1189 24.7285 81.9966 26.8625C81.9966 27.136 82.1052 27.3982 82.2987 27.5918C82.4921 27.7852 82.7544 27.8938 83.0278 27.8938C83.3014 27.8938 83.5637 27.7852 83.7571 27.5918C83.9504 27.3982 84.0591 27.136 84.0591 26.8625C84.1495 24.4114 83.3683 22.0076 81.8541 20.0781C80.34 18.1484 78.1908 16.8181 75.7885 16.3232C76.6934 13.6941 78.3744 11.4016 80.6096 9.74805C82.845 8.09473 85.5292 7.1582 88.3079 7.0625C90.4753 7.06201 92.6039 7.63867 94.4747 8.73315C94.4954 8.75366 94.516 8.75366 94.5366 8.77441C95.5276 9.46655 96.3665 10.3545 97.0013 11.3831C97.6362 12.4116 98.0538 13.5596 98.2285 14.7556C98.2491 14.8586 98.2491 14.9412 98.2698 15.0444C98.2997 15.2925 98.4187 15.521 98.6045 15.688C98.7904 15.855 99.0305 15.9487 99.2804 15.9519L99.4041 15.9519C99.6759 15.9153 99.9227 15.7742 100.092 15.5586C100.262 15.3428 100.34 15.0696 100.312 14.7969C100.315 14.7678 100.307 14.7385 100.291 14.7144C99.9932 12.1409 98.7777 9.76099 96.8672 8.01123C98.0143 7.39209 99.2968 7.06616 100.6 7.0625C102.984 7.21631 105.218 8.27637 106.844 10.0254C108.47 11.7744 109.365 14.0793 109.345 16.4675C108.156 16.5974 107.009 16.9844 105.984 17.6018C105.338 17.9548 104.741 18.3918 104.21 18.9014C103.34 19.7227 102.615 20.6851 102.065 21.7476C102.001 21.8674 101.962 21.999 101.95 22.1345C101.938 22.2698 101.954 22.4062 101.996 22.5354C102.039 22.6646 102.107 22.7837 102.197 22.8857C102.286 22.9878 102.396 23.0708 102.518 23.1294C102.657 23.2085 102.813 23.251 102.972 23.2532C103.163 23.2554 103.351 23.2046 103.515 23.1062C103.679 23.0078 103.812 22.866 103.9 22.6963C104.353 21.8057 104.968 21.0081 105.715 20.345C106.218 19.8616 106.796 19.4644 107.427 19.1694C108.292 18.7324 109.243 18.4929 110.212 18.468C110.232 18.4475 110.232 18.4475 110.253 18.468C112.214 19.1631 113.902 20.4663 115.071 22.1877C116.239 23.9092 116.828 25.959 116.75 28.0381C116.892 30.521 116.049 32.9597 114.404 34.8247C112.759 36.6899 110.445 37.8308 107.964 38ZM106.829 26.78C106.889 26.6101 106.904 26.4272 106.871 26.25C106.839 26.0725 106.76 25.907 106.643 25.7693C106.528 25.6213 106.37 25.5132 106.19 25.46C105.927 25.3779 105.643 25.4009 105.397 25.5239C105.151 25.6472 104.962 25.8606 104.87 26.1201C104.477 27.2947 104.323 28.5356 104.416 29.7705C104.416 29.7761 104.414 29.7812 104.41 29.7852C104.406 29.7891 104.401 29.7913 104.395 29.7913C104.375 29.8325 104.375 29.853 104.354 29.8738L104.416 29.8325C104.477 31.0452 104.808 32.229 105.385 33.2976C105.472 33.4641 105.602 33.604 105.762 33.7021C105.922 33.8003 106.105 33.8528 106.293 33.8545C106.459 33.855 106.623 33.8123 106.767 33.7307C106.888 33.6697 106.995 33.5852 107.082 33.4822C107.169 33.3794 107.235 33.26 107.275 33.1311C107.316 33.0022 107.33 32.8667 107.317 32.7324C107.304 32.5979 107.265 32.4675 107.2 32.3486C106.767 31.4932 106.511 30.5591 106.447 29.6023C106.384 28.6453 106.513 27.6855 106.829 26.78ZM80.0579 31.0288C79.1442 31.3203 78.1804 31.4211 77.2261 31.3254C76.2717 31.2297 75.3473 30.9392 74.5098 30.4719C74.3906 30.4065 74.2598 30.3655 74.1248 30.3508C73.9897 30.3362 73.8531 30.3484 73.7228 30.3867C73.5924 30.425 73.4709 30.4888 73.3654 30.5742C73.2598 30.6594 73.172 30.7649 73.1073 30.8843C73.0427 31.0046 73.0027 31.1367 72.9895 31.2727C72.9764 31.4084 72.9904 31.5457 73.0306 31.6763C73.0709 31.8066 73.1367 31.9277 73.2242 32.0327C73.3118 32.1375 73.4192 32.2239 73.5404 32.2869C74.9006 33.0293 76.425 33.4192 77.9747 33.4211C78.8994 33.4219 79.8184 33.2756 80.6973 32.988C80.8269 32.9478 80.9473 32.8818 81.051 32.7942C81.1548 32.7065 81.24 32.5989 81.3015 32.4778C81.363 32.3567 81.3997 32.2244 81.4093 32.0889C81.4188 31.9534 81.4011 31.8174 81.3573 31.6887C81.2723 31.429 81.0878 31.2136 80.8441 31.0898C80.6005 30.9661 80.3177 30.9441 80.0579 31.0288ZM97.7748 29.0488C97.2837 28.5542 96.7368 28.1182 96.1454 27.7493C95.5344 27.3545 94.8848 27.0227 94.2067 26.7593C93.5815 26.5115 92.9315 26.3315 92.2678 26.2231C91.9022 26.1414 91.5288 26.0999 91.1542 26.0994C91.0016 26.0164 90.83 25.9746 90.6564 25.9783C90.4828 25.9819 90.3131 26.0308 90.1641 26.1201L90.1434 26.1201C90.0905 26.0994 90.0315 26.0994 89.9785 26.1201C88.8274 26.2051 87.7052 26.5208 86.6785 27.0481C86.4553 27.1824 86.2913 27.396 86.2192 27.6462C86.1471 27.8965 86.1724 28.1648 86.2899 28.397C86.4073 28.6294 86.6084 28.8088 86.8527 28.8989C87.0969 28.9893 87.3662 28.9839 87.6066 28.8838C87.9473 28.7007 88.3069 28.5557 88.6791 28.4507L88.6997 28.4507C89.5065 28.2004 90.3528 28.1025 91.1953 28.1619C91.9741 28.2129 92.7399 28.3867 93.4641 28.6775C94.0603 28.9067 94.6278 29.2043 95.1554 29.5645C95.7354 29.9556 96.2683 30.4124 96.7435 30.9255C97.3441 31.5735 97.851 32.3025 98.2491 33.0913C98.3341 33.2649 98.4663 33.4109 98.6304 33.5132C98.7944 33.6152 98.984 33.6692 99.1772 33.6687C99.3428 33.6643 99.505 33.6221 99.6516 33.5449C99.7715 33.4834 99.8779 33.3987 99.9647 33.2957C100.052 33.1926 100.117 33.0732 100.157 32.9446C100.198 32.8162 100.212 32.6809 100.199 32.5466C100.187 32.4124 100.148 32.282 100.085 32.1631C99.5065 30.9956 98.7241 29.9409 97.7748 29.0488ZM91.1747 13.8274C91.3831 13.6851 91.5317 13.4709 91.5928 13.2261C91.6539 12.9812 91.623 12.7224 91.5061 12.4988C91.3893 12.2751 91.1943 12.1021 90.9585 12.0125C90.7225 11.9229 90.4619 11.9229 90.226 12.0125C89.3705 12.4458 88.4363 12.7019 87.4795 12.7656C86.5226 12.8293 85.5627 12.6995 84.6572 12.3838C84.5287 12.3384 84.3923 12.3188 84.2561 12.3264C84.1199 12.334 83.9866 12.3684 83.8638 12.4277C83.741 12.4873 83.6312 12.5706 83.5409 12.6729C83.4504 12.7749 83.3812 12.894 83.3373 13.0232C83.2574 13.2859 83.2814 13.5691 83.4041 13.8147C83.5269 14.0603 83.7391 14.2495 83.9972 14.343C84.9823 14.668 86.0126 14.835 87.0497 14.8381C88.4871 14.8464 89.9041 14.4993 91.1747 13.8274Z" fill="#FFFFFF" fill-opacity="1.000000" fill-rule="nonzero"/>
		</g>
	</g>
</svg>
