<svg width="278.000000" height="163.000000" viewBox="0 0 278 163" fill="none" xmlns="http://www.w3.org/2000/svg" xmlns:xlink="http://www.w3.org/1999/xlink">
	<desc>
			Created with Pixso.
	</desc>
	<defs>
		<filter id="filter_221_72_dd" x="91.000000" y="0.000000" width="96.000000" height="96.000000" filterUnits="userSpaceOnUse" color-interpolation-filters="sRGB">
			<feFlood flood-opacity="0" result="BackgroundImageFix"/>
			<feColorMatrix in="SourceAlpha" type="matrix" values="0 0 0 0 0 0 0 0 0 0 0 0 0 0 0 0 0 0 127 0" result="hardAlpha"/>
			<feOffset dx="0" dy="10"/>
			<feGaussianBlur stdDeviation="5"/>
			<feComposite in2="hardAlpha" operator="out" k2="-1" k3="1"/>
			<feColorMatrix type="matrix" values="0 0 0 0 0 0 0 0 0 0 0 0 0 0 0 0 0 0 0.25 0"/>
			<feBlend mode="normal" in2="BackgroundImageFix" result="effect_dropShadow_1"/>
			<feBlend mode="normal" in="SourceGraphic" in2="effect_dropShadow_1" result="shape"/>
		</filter>
		<clipPath id="clip221_72">
			<rect id="floor 1" width="66.000000" height="66.000000" transform="translate(106.000000 5.000000)" fill="white" fill-opacity="0"/>
		</clipPath>
	</defs>
	<g opacity="0.500000">
		<path id="Стіновими панелями та підлоговим покриттям" d="M1.26803 116.332C1.26803 115.292 1.44403 114.276 1.79603 113.284C2.16403 112.276 2.69203 111.364 3.38003 110.548C4.08403 109.716 4.94003 109.06 5.94803 108.58C6.95603 108.084 8.10003 107.836 9.38003 107.836C10.9 107.836 12.204 108.188 13.292 108.892C14.38 109.58 15.188 110.468 15.716 111.556L14.012 112.66C13.676 111.94 13.244 111.372 12.716 110.956C12.204 110.524 11.644 110.22 11.036 110.044C10.444 109.868 9.86003 109.78 9.28403 109.78C8.34003 109.78 7.50003 109.972 6.76403 110.356C6.04403 110.74 5.43603 111.252 4.94003 111.892C4.44403 112.532 4.06803 113.252 3.81203 114.052C3.57203 114.836 3.45203 115.628 3.45203 116.428C3.45203 117.308 3.59603 118.156 3.88403 118.972C4.18803 119.788 4.60403 120.508 5.13203 121.132C5.66003 121.756 6.28403 122.252 7.00403 122.62C7.72403 122.988 8.50803 123.172 9.35603 123.172C9.94803 123.172 10.556 123.068 11.18 122.86C11.804 122.652 12.388 122.332 12.932 121.9C13.476 121.452 13.908 120.876 14.228 120.172L16.028 121.156C15.676 122.004 15.132 122.724 14.396 123.316C13.66 123.908 12.836 124.356 11.924 124.66C11.028 124.964 10.14 125.116 9.26003 125.116C8.09203 125.116 7.02003 124.868 6.04403 124.372C5.06803 123.86 4.22003 123.188 3.50003 122.356C2.79603 121.508 2.24403 120.564 1.84403 119.524C1.46003 118.468 1.26803 117.404 1.26803 116.332ZM21.4434 124.972L21.4434 114.316L17.1234 114.316L17.1234 112.444L27.8754 112.444L27.8754 114.316L23.5554 114.316L23.5554 124.972L21.4434 124.972ZM29.997 110.092L29.997 107.452L32.109 107.452L32.109 110.092L29.997 110.092ZM29.997 124.972L29.997 112.444L32.109 112.444L32.109 124.972L29.997 124.972ZM35.5042 124.972L35.5042 112.444L37.6162 112.444L37.6162 117.628L44.1442 117.628L44.1442 112.444L46.2562 112.444L46.2562 124.972L44.1442 124.972L44.1442 119.5L37.6162 119.5L37.6162 124.972L35.5042 124.972ZM55.133 125.212C53.885 125.212 52.781 124.916 51.821 124.324C50.877 123.716 50.141 122.924 49.613 121.948C49.085 120.956 48.821 119.884 48.821 118.732C48.821 117.564 49.085 116.492 49.613 115.516C50.157 114.524 50.901 113.732 51.845 113.14C52.805 112.532 53.901 112.228 55.133 112.228C56.381 112.228 57.477 112.532 58.421 113.14C59.381 113.732 60.125 114.524 60.653 115.516C61.197 116.492 61.469 117.564 61.469 118.732C61.469 119.884 61.197 120.956 60.653 121.948C60.125 122.924 59.389 123.716 58.445 124.324C57.501 124.916 56.397 125.212 55.133 125.212ZM50.981 118.756C50.981 119.62 51.165 120.404 51.533 121.108C51.917 121.812 52.421 122.372 53.045 122.788C53.669 123.188 54.365 123.388 55.133 123.388C55.901 123.388 56.597 123.18 57.221 122.764C57.861 122.348 58.365 121.788 58.733 121.084C59.117 120.364 59.309 119.572 59.309 118.708C59.309 117.844 59.117 117.06 58.733 116.356C58.365 115.652 57.861 115.092 57.221 114.676C56.597 114.26 55.901 114.052 55.133 114.052C54.365 114.052 53.669 114.268 53.045 114.7C52.421 115.116 51.917 115.676 51.533 116.38C51.165 117.084 50.981 117.876 50.981 118.756ZM64.0042 124.972L64.0042 112.444L70.4842 112.444C71.2362 112.444 71.8602 112.596 72.3562 112.9C72.8522 113.188 73.2202 113.564 73.4602 114.028C73.7162 114.492 73.8442 114.988 73.8442 115.516C73.8442 116.188 73.6842 116.796 73.3642 117.34C73.0442 117.868 72.5802 118.268 71.9722 118.54C72.6922 118.748 73.2762 119.124 73.7242 119.668C74.1722 120.196 74.3962 120.852 74.3962 121.636C74.3962 122.692 74.0202 123.516 73.2682 124.108C72.5322 124.684 71.5642 124.972 70.3642 124.972L64.0042 124.972ZM66.0202 117.964L69.9322 117.964C70.4922 117.964 70.9482 117.756 71.3002 117.34C71.6682 116.908 71.8522 116.42 71.8522 115.876C71.8522 115.348 71.6762 114.892 71.3242 114.508C70.9882 114.124 70.5482 113.932 70.0042 113.932L66.0202 113.932L66.0202 117.964ZM66.0202 123.484L70.3162 123.484C70.8922 123.484 71.3722 123.276 71.7562 122.86C72.1562 122.444 72.3562 121.964 72.3562 121.42C72.3562 120.86 72.1642 120.38 71.7802 119.98C71.4122 119.564 70.9482 119.356 70.3882 119.356L66.0202 119.356L66.0202 123.484ZM77.0589 124.972L77.0589 112.468L79.1709 112.468L79.1709 122.14L86.1789 112.444L88.0989 112.444L88.0989 124.972L85.9869 124.972L85.9869 115.492L79.0749 124.972L77.0589 124.972ZM91.4495 124.972L91.4495 112.444L93.6335 112.444L98.2895 120.652L102.97 112.444L105.106 112.444L105.106 124.972L103.09 124.972L103.09 115.492L98.9615 122.74L97.6175 122.74L93.4655 115.492L93.4655 124.972L91.4495 124.972ZM108.489 124.972L108.489 112.468L110.601 112.468L110.601 122.14L117.609 112.444L119.529 112.444L119.529 124.972L117.417 124.972L117.417 115.492L110.505 124.972L108.489 124.972ZM128.95 124.972L128.95 112.444L139.342 112.444L139.342 124.972L137.23 124.972L137.23 114.316L131.062 114.316L131.062 124.972L128.95 124.972ZM141.771 121.348C141.771 120.548 141.995 119.86 142.443 119.284C142.907 118.692 143.539 118.236 144.339 117.916C145.139 117.596 146.067 117.436 147.123 117.436C147.683 117.436 148.275 117.484 148.899 117.58C149.523 117.66 150.075 117.788 150.555 117.964L150.555 117.052C150.555 116.092 150.267 115.34 149.691 114.796C149.115 114.236 148.299 113.956 147.243 113.956C146.555 113.956 145.891 114.084 145.251 114.34C144.627 114.58 143.963 114.932 143.259 115.396L142.491 113.908C143.307 113.348 144.123 112.932 144.939 112.66C145.755 112.372 146.603 112.228 147.483 112.228C149.083 112.228 150.347 112.676 151.275 113.572C152.203 114.452 152.667 115.684 152.667 117.268L152.667 122.572C152.667 123.068 152.891 123.324 153.339 123.34L153.339 124.972C153.131 125.004 152.947 125.028 152.787 125.044C152.643 125.06 152.523 125.068 152.427 125.068C151.931 125.068 151.555 124.932 151.299 124.66C151.059 124.388 150.923 124.1 150.891 123.796L150.843 123.004C150.299 123.708 149.587 124.252 148.707 124.636C147.827 125.02 146.955 125.212 146.091 125.212C145.259 125.212 144.515 125.044 143.859 124.708C143.203 124.356 142.691 123.892 142.323 123.316C141.955 122.724 141.771 122.068 141.771 121.348ZM149.931 122.236C150.123 122.012 150.275 121.788 150.387 121.564C150.499 121.324 150.555 121.124 150.555 120.964L150.555 119.404C149.531 119.004 148.475 118.804 147.387 118.804C146.315 118.804 145.443 119.02 144.771 119.452C144.115 119.868 143.787 120.444 143.787 121.18C143.787 121.58 143.891 121.972 144.099 122.356C144.323 122.724 144.643 123.028 145.059 123.268C145.491 123.508 146.019 123.628 146.643 123.628C147.299 123.628 147.923 123.5 148.515 123.244C149.107 122.972 149.579 122.636 149.931 122.236ZM156.02 124.972L156.02 112.444L158.132 112.444L158.132 117.628L164.66 117.628L164.66 112.444L166.772 112.444L166.772 124.972L164.66 124.972L164.66 119.5L158.132 119.5L158.132 124.972L156.02 124.972ZM175.721 125.212C174.473 125.212 173.369 124.916 172.409 124.324C171.449 123.732 170.697 122.94 170.153 121.948C169.609 120.956 169.337 119.876 169.337 118.708C169.337 117.524 169.609 116.444 170.153 115.468C170.697 114.492 171.449 113.708 172.409 113.116C173.385 112.524 174.497 112.228 175.745 112.228C177.009 112.228 178.105 112.532 179.033 113.14C179.977 113.732 180.705 114.516 181.217 115.492C181.745 116.452 182.009 117.492 182.009 118.612C182.009 118.964 181.993 119.236 181.961 119.428L171.569 119.428C171.633 120.244 171.857 120.972 172.241 121.612C172.641 122.236 173.153 122.732 173.777 123.1C174.401 123.452 175.073 123.628 175.793 123.628C176.561 123.628 177.281 123.436 177.953 123.052C178.641 122.668 179.113 122.164 179.369 121.54L181.193 122.044C180.793 122.972 180.097 123.732 179.105 124.324C178.113 124.916 176.985 125.212 175.721 125.212ZM171.497 117.964L180.041 117.964C179.977 117.148 179.745 116.428 179.345 115.804C178.945 115.18 178.433 114.692 177.809 114.34C177.185 113.988 176.497 113.812 175.745 113.812C175.009 113.812 174.329 113.988 173.705 114.34C173.081 114.692 172.569 115.18 172.169 115.804C171.785 116.428 171.561 117.148 171.497 117.964ZM183.252 125.068L183.252 123.172C183.796 123.156 184.276 122.956 184.692 122.572C185.108 122.188 185.436 121.484 185.676 120.46C185.932 119.436 186.092 117.972 186.156 116.068L186.3 112.444L194.82 112.444L194.82 124.972L192.708 124.972L192.708 114.316L188.172 114.316L188.124 116.26C188.044 118.532 187.812 120.308 187.428 121.588C187.06 122.868 186.524 123.764 185.82 124.276C185.132 124.788 184.276 125.052 183.252 125.068ZM197.295 124.972L200.847 119.932C200.031 119.772 199.375 119.388 198.879 118.78C198.383 118.156 198.135 117.324 198.135 116.284C198.135 115.532 198.311 114.868 198.663 114.292C199.015 113.716 199.503 113.26 200.127 112.924C200.767 112.588 201.511 112.42 202.359 112.42L207.495 112.42L207.495 124.972L205.383 124.972L205.383 120.268L202.935 120.268L199.623 124.972L197.295 124.972ZM202.503 118.708L205.383 118.708L205.383 114.076L202.743 114.076C201.991 114.076 201.391 114.292 200.943 114.724C200.495 115.14 200.271 115.676 200.271 116.332C200.271 116.988 200.455 117.548 200.823 118.012C201.207 118.476 201.767 118.708 202.503 118.708ZM210.887 124.972L210.887 112.444L213.071 112.444L217.727 120.652L222.407 112.444L224.543 112.444L224.543 124.972L222.527 124.972L222.527 115.492L218.399 122.74L217.055 122.74L212.903 115.492L212.903 124.972L210.887 124.972ZM227.926 124.972L227.926 112.468L230.038 112.468L230.038 122.14L237.046 112.444L238.966 112.444L238.966 124.972L236.854 124.972L236.854 115.492L229.942 124.972L227.926 124.972ZM251.459 124.972L251.459 114.316L247.139 114.316L247.139 112.444L257.891 112.444L257.891 114.316L253.571 114.316L253.571 124.972L251.459 124.972ZM259.029 121.348C259.029 120.548 259.253 119.86 259.701 119.284C260.165 118.692 260.797 118.236 261.597 117.916C262.397 117.596 263.325 117.436 264.381 117.436C264.941 117.436 265.533 117.484 266.157 117.58C266.781 117.66 267.333 117.788 267.813 117.964L267.813 117.052C267.813 116.092 267.525 115.34 266.949 114.796C266.373 114.236 265.557 113.956 264.501 113.956C263.813 113.956 263.149 114.084 262.509 114.34C261.885 114.58 261.221 114.932 260.517 115.396L259.749 113.908C260.565 113.348 261.381 112.932 262.197 112.66C263.013 112.372 263.861 112.228 264.741 112.228C266.341 112.228 267.605 112.676 268.533 113.572C269.461 114.452 269.925 115.684 269.925 117.268L269.925 122.572C269.925 123.068 270.149 123.324 270.597 123.34L270.597 124.972C270.389 125.004 270.205 125.028 270.045 125.044C269.901 125.06 269.781 125.068 269.685 125.068C269.189 125.068 268.813 124.932 268.557 124.66C268.317 124.388 268.181 124.1 268.149 123.796L268.101 123.004C267.557 123.708 266.845 124.252 265.965 124.636C265.085 125.02 264.213 125.212 263.349 125.212C262.517 125.212 261.773 125.044 261.117 124.708C260.461 124.356 259.949 123.892 259.581 123.316C259.213 122.724 259.029 122.068 259.029 121.348ZM267.189 122.236C267.381 122.012 267.533 121.788 267.645 121.564C267.757 121.324 267.813 121.124 267.813 120.964L267.813 119.404C266.789 119.004 265.733 118.804 264.645 118.804C263.573 118.804 262.701 119.02 262.029 119.452C261.373 119.868 261.045 120.444 261.045 121.18C261.045 121.58 261.149 121.972 261.357 122.356C261.581 122.724 261.901 123.028 262.317 123.268C262.749 123.508 263.277 123.628 263.901 123.628C264.557 123.628 265.181 123.5 265.773 123.244C266.365 122.972 266.837 122.636 267.189 122.236ZM14.0706 155.972L14.0706 143.444L24.4626 143.444L24.4626 155.972L22.3506 155.972L22.3506 145.316L16.1826 145.316L16.1826 155.972L14.0706 155.972ZM27.8759 141.092L27.8759 138.452L29.9879 138.452L29.9879 141.092L27.8759 141.092ZM27.8759 155.972L27.8759 143.444L29.9879 143.444L29.9879 155.972L27.8759 155.972ZM32.0151 158.924L32.0151 154.1L32.2791 154.1C32.7431 154.1 33.1591 153.908 33.5271 153.524C33.9111 153.124 34.2231 152.42 34.4631 151.412C34.7031 150.388 34.8471 148.94 34.8951 147.068L35.0151 143.444L43.5351 143.444L43.5351 154.1L45.2391 154.1L45.2391 158.924L43.3671 158.924L43.3671 155.972L33.8871 155.972L33.8871 158.924L32.0151 158.924ZM35.2311 154.1L41.4231 154.1L41.4231 145.316L36.8871 145.316L36.8151 147.26C36.7511 149.308 36.5831 150.86 36.3111 151.916C36.0551 152.972 35.6951 153.7 35.2311 154.1ZM46.4828 156.068L46.4828 154.172C47.0268 154.156 47.5068 153.956 47.9228 153.572C48.3388 153.188 48.6668 152.484 48.9068 151.46C49.1628 150.436 49.3228 148.972 49.3868 147.068L49.5308 143.444L58.0508 143.444L58.0508 155.972L55.9388 155.972L55.9388 145.316L51.4028 145.316L51.3548 147.26C51.2748 149.532 51.0428 151.308 50.6588 152.588C50.2908 153.868 49.7548 154.764 49.0508 155.276C48.3628 155.788 47.5068 156.052 46.4828 156.068ZM66.9338 156.212C65.6858 156.212 64.5818 155.916 63.6218 155.324C62.6778 154.716 61.9418 153.924 61.4138 152.948C60.8858 151.956 60.6218 150.884 60.6218 149.732C60.6218 148.564 60.8858 147.492 61.4138 146.516C61.9578 145.524 62.7018 144.732 63.6458 144.14C64.6058 143.532 65.7018 143.228 66.9338 143.228C68.1818 143.228 69.2778 143.532 70.2218 144.14C71.1818 144.732 71.9258 145.524 72.4538 146.516C72.9978 147.492 73.2698 148.564 73.2698 149.732C73.2698 150.884 72.9978 151.956 72.4538 152.948C71.9258 153.924 71.1898 154.716 70.2458 155.324C69.3018 155.916 68.1978 156.212 66.9338 156.212ZM62.7818 149.756C62.7818 150.62 62.9658 151.404 63.3338 152.108C63.7178 152.812 64.2218 153.372 64.8458 153.788C65.4698 154.188 66.1658 154.388 66.9338 154.388C67.7018 154.388 68.3978 154.18 69.0218 153.764C69.6618 153.348 70.1658 152.788 70.5338 152.084C70.9178 151.364 71.1098 150.572 71.1098 149.708C71.1098 148.844 70.9178 148.06 70.5338 147.356C70.1658 146.652 69.6618 146.092 69.0218 145.676C68.3978 145.26 67.7018 145.052 66.9338 145.052C66.1658 145.052 65.4698 145.268 64.8458 145.7C64.2218 146.116 63.7178 146.676 63.3338 147.38C62.9658 148.084 62.7818 148.876 62.7818 149.756ZM75.805 155.972L75.805 143.444L83.533 143.444L83.533 145.316L77.917 145.316L77.917 155.972L75.805 155.972ZM91.1682 156.212C89.9202 156.212 88.8162 155.916 87.8562 155.324C86.9122 154.716 86.1762 153.924 85.6482 152.948C85.1202 151.956 84.8562 150.884 84.8562 149.732C84.8562 148.564 85.1202 147.492 85.6482 146.516C86.1922 145.524 86.9362 144.732 87.8802 144.14C88.8402 143.532 89.9362 143.228 91.1682 143.228C92.4162 143.228 93.5122 143.532 94.4562 144.14C95.4162 144.732 96.1602 145.524 96.6882 146.516C97.2322 147.492 97.5042 148.564 97.5042 149.732C97.5042 150.884 97.2322 151.956 96.6882 152.948C96.1602 153.924 95.4242 154.716 94.4802 155.324C93.5362 155.916 92.4322 156.212 91.1682 156.212ZM87.0162 149.756C87.0162 150.62 87.2002 151.404 87.5682 152.108C87.9522 152.812 88.4562 153.372 89.0802 153.788C89.7042 154.188 90.4002 154.388 91.1682 154.388C91.9362 154.388 92.6322 154.18 93.2562 153.764C93.8962 153.348 94.4002 152.788 94.7682 152.084C95.1522 151.364 95.3442 150.572 95.3442 149.708C95.3442 148.844 95.1522 148.06 94.7682 147.356C94.4002 146.652 93.8962 146.092 93.2562 145.676C92.6322 145.26 91.9362 145.052 91.1682 145.052C90.4002 145.052 89.7042 145.268 89.0802 145.7C88.4562 146.116 87.9522 146.676 87.5682 147.38C87.2002 148.084 87.0162 148.876 87.0162 149.756ZM100.039 155.972L100.039 143.444L106.519 143.444C107.271 143.444 107.895 143.596 108.391 143.9C108.887 144.188 109.255 144.564 109.495 145.028C109.751 145.492 109.879 145.988 109.879 146.516C109.879 147.188 109.719 147.796 109.399 148.34C109.079 148.868 108.615 149.268 108.007 149.54C108.727 149.748 109.311 150.124 109.759 150.668C110.207 151.196 110.431 151.852 110.431 152.636C110.431 153.692 110.055 154.516 109.303 155.108C108.567 155.684 107.599 155.972 106.399 155.972L100.039 155.972ZM102.055 148.964L105.967 148.964C106.527 148.964 106.983 148.756 107.335 148.34C107.703 147.908 107.887 147.42 107.887 146.876C107.887 146.348 107.711 145.892 107.359 145.508C107.023 145.124 106.583 144.932 106.039 144.932L102.055 144.932L102.055 148.964ZM102.055 154.484L106.351 154.484C106.927 154.484 107.407 154.276 107.791 153.86C108.191 153.444 108.391 152.964 108.391 152.42C108.391 151.86 108.199 151.38 107.815 150.98C107.447 150.564 106.983 150.356 106.423 150.356L102.055 150.356L102.055 154.484ZM113.094 155.972L113.094 143.468L115.206 143.468L115.206 153.14L122.214 143.444L124.134 143.444L124.134 155.972L122.022 155.972L122.022 146.492L115.11 155.972L113.094 155.972ZM127.485 155.972L127.485 143.444L129.669 143.444L134.325 151.652L139.005 143.444L141.141 143.444L141.141 155.972L139.125 155.972L139.125 146.492L134.997 153.74L133.653 153.74L129.501 146.492L129.501 155.972L127.485 155.972ZM150.594 155.972L150.594 143.444L160.986 143.444L160.986 155.972L158.874 155.972L158.874 145.316L152.706 145.316L152.706 155.972L150.594 155.972ZM169.871 156.212C168.623 156.212 167.519 155.916 166.559 155.324C165.615 154.716 164.879 153.924 164.351 152.948C163.823 151.956 163.559 150.884 163.559 149.732C163.559 148.564 163.823 147.492 164.351 146.516C164.895 145.524 165.639 144.732 166.583 144.14C167.543 143.532 168.639 143.228 169.871 143.228C171.119 143.228 172.215 143.532 173.159 144.14C174.119 144.732 174.863 145.524 175.391 146.516C175.935 147.492 176.207 148.564 176.207 149.732C176.207 150.884 175.935 151.956 175.391 152.948C174.863 153.924 174.127 154.716 173.183 155.324C172.239 155.916 171.135 156.212 169.871 156.212ZM165.719 149.756C165.719 150.62 165.903 151.404 166.271 152.108C166.655 152.812 167.159 153.372 167.783 153.788C168.407 154.188 169.103 154.388 169.871 154.388C170.639 154.388 171.335 154.18 171.959 153.764C172.599 153.348 173.103 152.788 173.471 152.084C173.855 151.364 174.047 150.572 174.047 149.708C174.047 148.844 173.855 148.06 173.471 147.356C173.103 146.652 172.599 146.092 171.959 145.676C171.335 145.26 170.639 145.052 169.871 145.052C169.103 145.052 168.407 145.268 167.783 145.7C167.159 146.116 166.655 146.676 166.271 147.38C165.903 148.084 165.719 148.876 165.719 149.756ZM178.742 155.972L178.742 143.444L180.855 143.444L180.855 148.604L182.247 148.604L186.182 143.444L188.583 143.444L183.902 149.516L189.135 155.972L186.686 155.972L182.247 150.548L180.855 150.548L180.855 155.972L178.742 155.972ZM197.956 156.212C196.932 156.212 196.02 155.956 195.22 155.444C194.42 154.932 193.788 154.284 193.324 153.5L193.324 161.084L191.212 161.084L191.212 143.444L193.084 143.444L193.084 145.796C193.58 145.028 194.228 144.412 195.028 143.948C195.828 143.468 196.7 143.228 197.644 143.228C198.508 143.228 199.3 143.404 200.02 143.756C200.74 144.108 201.364 144.588 201.892 145.196C202.42 145.804 202.828 146.5 203.116 147.284C203.42 148.052 203.572 148.86 203.572 149.708C203.572 150.892 203.332 151.98 202.852 152.972C202.388 153.964 201.732 154.756 200.884 155.348C200.036 155.924 199.06 156.212 197.956 156.212ZM197.308 154.388C198.14 154.388 198.86 154.164 199.468 153.716C200.076 153.268 200.548 152.684 200.884 151.964C201.236 151.244 201.412 150.492 201.412 149.708C201.412 148.86 201.22 148.084 200.836 147.38C200.468 146.676 199.956 146.116 199.3 145.7C198.66 145.268 197.932 145.052 197.116 145.052C196.62 145.052 196.092 145.18 195.532 145.436C194.988 145.692 194.508 146.036 194.092 146.468C193.692 146.884 193.436 147.348 193.324 147.86L193.324 151.436C193.676 152.268 194.212 152.972 194.932 153.548C195.668 154.108 196.46 154.388 197.308 154.388ZM206.141 155.972L206.141 143.468L208.253 143.468L208.253 153.14L215.261 143.444L217.181 143.444L217.181 155.972L215.069 155.972L215.069 146.492L208.157 155.972L206.141 155.972ZM223.604 155.972L223.604 145.316L219.284 145.316L219.284 143.444L230.036 143.444L230.036 145.316L225.716 145.316L225.716 155.972L223.604 155.972ZM235.205 155.972L235.205 145.316L230.885 145.316L230.885 143.444L241.637 143.444L241.637 145.316L237.317 145.316L237.317 155.972L235.205 155.972ZM242.729 155.972L246.281 150.932C245.465 150.772 244.809 150.388 244.313 149.78C243.817 149.156 243.569 148.324 243.569 147.284C243.569 146.532 243.745 145.868 244.097 145.292C244.449 144.716 244.937 144.26 245.561 143.924C246.201 143.588 246.945 143.42 247.793 143.42L252.929 143.42L252.929 155.972L250.817 155.972L250.817 151.268L248.369 151.268L245.057 155.972L242.729 155.972ZM247.937 149.708L250.817 149.708L250.817 145.076L248.177 145.076C247.425 145.076 246.825 145.292 246.377 145.724C245.929 146.14 245.705 146.676 245.705 147.332C245.705 147.988 245.889 148.548 246.257 149.012C246.641 149.476 247.201 149.708 247.937 149.708ZM256.321 155.972L256.321 143.444L258.505 143.444L263.161 151.652L267.841 143.444L269.977 143.444L269.977 155.972L267.961 155.972L267.961 146.492L263.833 153.74L262.489 153.74L258.337 146.492L258.337 155.972L256.321 155.972Z" fill="#FFFFFF" fill-opacity="1.000000" fill-rule="evenodd"/>
	</g>
	<g filter="url(#filter_221_72_dd)">
		<rect id="floor 1" width="66.000000" height="66.000000" transform="translate(106.000000 5.000000)" fill="#FFFFFF" fill-opacity="0"/>
		<g clip-path="url(#clip221_72)">
			<path id="Vector" d="M168.674 66.1094L160.754 27.8293C160.628 27.2222 160.087 26.78 159.46 26.78L118.54 26.78C117.913 26.78 117.372 27.2222 117.246 27.8293L109.326 66.1094C109.247 66.4988 109.346 66.9014 109.597 67.2117C109.848 67.522 110.224 67.7 110.62 67.7L167.38 67.7C167.776 67.7 168.152 67.522 168.403 67.2117C168.654 66.908 168.753 66.4988 168.674 66.1094ZM161.796 45.9202C161.783 45.9202 161.777 45.9202 161.77 45.9202L140.32 45.9202L140.32 29.4202L158.384 29.4202L161.796 45.9202ZM119.616 29.4202L137.68 29.4202L137.68 45.9202L116.23 45.9202C116.217 45.9202 116.21 45.9202 116.204 45.9202L119.616 29.4202ZM115.682 48.4346C115.847 48.5139 116.032 48.5601 116.23 48.5601L137.68 48.5601L137.68 65.0601L112.244 65.0601L115.682 48.4346ZM140.32 65.0601L140.32 48.5601L161.77 48.5601C161.968 48.5601 162.153 48.5139 162.318 48.4346L165.756 65.0601L140.32 65.0601ZM143.62 15.5601C145.442 15.5601 146.92 17.0383 146.92 18.8601C146.92 19.5859 147.514 20.1799 148.24 20.1799C148.966 20.1799 149.56 19.5859 149.56 18.8601C149.56 17.0383 151.038 15.5601 152.86 15.5601C153.586 15.5601 154.18 14.9661 154.18 14.24C154.18 13.5142 153.586 12.9202 152.86 12.9202C151.038 12.9202 149.56 11.4417 149.56 9.62012C149.56 8.89404 148.966 8.30005 148.24 8.30005C147.514 8.30005 146.92 8.89404 146.92 9.62012C146.92 11.4417 145.442 12.9202 143.62 12.9202C142.894 12.9202 142.3 13.5142 142.3 14.24C142.3 14.9661 142.894 15.5601 143.62 15.5601ZM148.24 13.3425C148.504 13.6724 148.808 13.9695 149.138 14.24C148.808 14.5042 148.511 14.8076 148.24 15.1377C147.976 14.8076 147.672 14.5107 147.342 14.24C147.672 13.9761 147.976 13.6724 148.24 13.3425ZM125.14 18.2C126.962 18.2 128.44 19.6785 128.44 21.5C128.44 22.2261 129.034 22.8201 129.76 22.8201C130.486 22.8201 131.08 22.2261 131.08 21.5C131.08 19.6785 132.558 18.2 134.38 18.2C135.106 18.2 135.7 17.606 135.7 16.8801C135.7 16.1541 135.106 15.5601 134.38 15.5601C132.558 15.5601 131.08 14.0815 131.08 12.26C131.08 11.5339 130.486 10.9399 129.76 10.9399C129.034 10.9399 128.44 11.5339 128.44 12.26C128.44 14.0815 126.962 15.5601 125.14 15.5601C124.414 15.5601 123.82 16.1541 123.82 16.8801C123.82 17.606 124.414 18.2 125.14 18.2ZM129.76 15.9824C130.024 16.3125 130.328 16.6094 130.658 16.8801C130.328 17.144 130.031 17.4478 129.76 17.7776C129.496 17.4478 129.192 17.1506 128.862 16.8801C129.192 16.616 129.496 16.3125 129.76 15.9824Z" fill="#FFFFFF" fill-opacity="1.000000" fill-rule="nonzero"/>
		</g>
	</g>
</svg>
